<?xml version="1.0" encoding="UTF-8"?>
<svg width="396" height="468" overflow="visible" version="1.1" xml:space="preserve" xmlns="http://www.w3.org/2000/svg" xmlns:xlink="http://www.w3.org/1999/xlink">
  <defs>
    <path id="a" d="M0 0h396v468H0z"/>
  </defs>
  <clipPath>
    <use xlink:href="#a"/>
  </clipPath>
  
  
  
  
  
  
  
  <path d="m0 0h396v468h-396z" fill="#f5e0a3" stroke-width=".99909"/><path d="m0 312h396v156h-396z" fill="#e06a29" stroke-width=".57683"/><g stroke-width="1.0016">
<path d="m23.82 430.97q0 5.88 1.32 8.8 1.36 2.92 4.6 2.92 3.2 0 4.56-2.88 1.4-2.92 1.4-8.84 0-5.84-1.4-8.76-1.36-2.92-4.56-2.92-3.24 0-4.6 2.92-1.32 2.92-1.32 8.76zm15.44 0q0 4.6-0.96 7.92-0.96 3.28-3.04 5.04t-5.52 1.76q-4.84 0-7.16-3.88-2.28-3.92-2.28-10.84 0-4.64 0.92-7.92 0.96-3.28 3.04-5 2.08-1.76 5.48-1.76 4.8 0 7.16 3.88 2.36 3.84 2.36 10.8zm-8.24 1.72q-0.52 0.68-1.28 0.68t-1.28-0.72-0.52-1.68q0-1 0.52-1.68 0.52-0.72 1.28-0.72 0.68 0 1.24 0.68t0.56 1.72q0 1-0.52 1.72zm27.7 12.6h-3.44v-19.96q0-1.16 0-1.96 0.04-0.8 0.08-1.48 0.04-0.72 0.08-1.48-0.64 0.64-1.16 1.08t-1.32 1.12l-3.04 2.48-1.84-2.36 7.72-6h2.92zm32.78 0h-18.88v-2.92l7.48-7.56q2.16-2.16 3.64-3.84t2.24-3.28q0.76-1.64 0.76-3.56 0-2.36-1.4-3.56-1.4-1.24-3.64-1.24-2.08 0-3.68 0.72-1.56 0.72-3.2 2l-1.88-2.36q1.12-0.96 2.44-1.72 1.36-0.76 2.92-1.2 1.6-0.44 3.4-0.44 2.68 0 4.6 0.92t2.96 2.64q1.08 1.68 1.08 4.04 0 2.24-0.92 4.2t-2.56 3.88q-1.64 1.88-3.84 4.04l-5.96 5.88v0.16h14.44zm25.1-21.88q0 1.92-0.72 3.32t-2.08 2.28q-1.32 0.88-3.12 1.24v0.16q3.44 0.4 5.12 2.16t1.68 4.6q0 2.48-1.16 4.44-1.16 1.92-3.6 3-2.4 1.08-6.2 1.08-2.24 0-4.16-0.36-1.92-0.32-3.68-1.2v-3.28q1.8 0.88 3.88 1.4 2.08 0.48 4 0.48 3.84 0 5.52-1.48 1.72-1.52 1.72-4.16 0-1.8-0.96-2.88-0.92-1.12-2.72-1.64t-4.32-0.52h-2.76v-3h2.8q2.36 0 3.92-0.68 1.6-0.68 2.4-1.88 0.84-1.24 0.84-2.84 0-2.08-1.4-3.2-1.4-1.16-3.8-1.16-1.52 0-2.76 0.32-1.24 0.28-2.32 0.84-1.04 0.52-2.12 1.24l-1.76-2.4q1.52-1.2 3.76-2.08 2.28-0.88 5.16-0.88 4.48 0 6.64 2 2.2 2 2.2 5.08zm20.98 3.24q0-1.04 0-1.88 0.04-0.88 0.08-1.64t0.04-1.44q0.04-0.72 0.08-1.36h-0.16q-0.32 0.76-0.8 1.64t-0.92 1.48l-8.56 12.2h10.24zm7.56 12.16h-4.16v6.48h-3.4v-6.48h-13.68v-3l13.44-19.24h3.64v19.08h4.16zm15.1-11.04q2.92 0 5.08 1t3.32 2.88q1.2 1.84 1.2 4.52 0 2.96-1.28 5.12-1.28 2.12-3.68 3.28-2.36 1.12-5.72 1.12-2.2 0-4.16-0.4-1.92-0.4-3.24-1.16v-3.32q1.44 0.88 3.48 1.4 2.08 0.48 3.96 0.48 2.12 0 3.68-0.64 1.6-0.68 2.48-2.04 0.88-1.4 0.88-3.48 0-2.8-1.72-4.28-1.72-1.52-5.44-1.52-1.12 0-2.56 0.2t-2.32 0.4l-1.76-1.12 1.08-13.48h14.32v3.2h-11.32l-0.68 8.28q0.68-0.12 1.84-0.28t2.56-0.16zm27.06 14.96q2.52 0 4.08-1.6 1.56-1.64 1.56-5.04 0-2.72-1.4-4.32-1.36-1.6-4.12-1.6-1.88 0-3.28 0.8-1.4 0.76-2.2 1.96-0.76 1.2-0.76 2.48 0 1.32 0.36 2.6 0.4 1.28 1.16 2.36 0.8 1.08 1.92 1.72 1.16 0.64 2.68 0.64zm-9.68-9.64q0-2.48 0.32-4.88 0.36-2.4 1.2-4.52 0.84-2.16 2.32-3.8 1.48-1.68 3.72-2.6 2.28-0.96 5.52-0.96 0.84 0 1.84 0.08 1.04 0.08 1.68 0.28v3q-0.72-0.24-1.64-0.36-0.88-0.12-1.8-0.12-2.76 0-4.6 0.92t-2.92 2.52q-1.04 1.6-1.52 3.68t-0.6 4.44h0.24q0.6-0.96 1.52-1.72t2.2-1.2q1.32-0.44 3.04-0.44 2.48 0 4.32 1.04 1.88 1 2.92 2.96 1.04 1.92 1.04 4.68 0 2.96-1.12 5.12t-3.16 3.32q-2 1.16-4.8 1.16-2.04 0-3.8-0.76t-3.12-2.32q-1.32-1.56-2.08-3.92-0.72-2.4-0.72-5.6zm29.42 12.2 11.72-25.36h-15.4v-3.2h19.16v2.72l-11.6 25.84zm32.1-26.12q-2.2 0-3.64 1.08-1.4 1.04-1.4 3.04 0 1.48 0.68 2.48 0.72 1 1.92 1.72 1.2 0.68 2.64 1.32 1.4-0.6 2.48-1.32 1.12-0.72 1.76-1.72 0.68-1.04 0.68-2.48 0-2-1.4-3.04-1.4-1.08-3.72-1.08zm-5.96 18.88q0 2.08 1.48 3.48 1.48 1.36 4.56 1.36 2.92 0 4.44-1.36 1.56-1.4 1.56-3.6 0-1.4-0.76-2.44-0.72-1.08-2.08-1.92-1.32-0.84-3.16-1.52l-0.64-0.24q-1.76 0.76-2.96 1.64t-1.84 2q-0.6 1.12-0.6 2.6zm6-21.72q2.52 0 4.44 0.8 1.92 0.76 3 2.28 1.12 1.52 1.12 3.76 0 1.72-0.76 3-0.72 1.28-1.96 2.28-1.24 0.96-2.72 1.72 1.76 0.84 3.2 1.92 1.44 1.04 2.28 2.44 0.88 1.4 0.88 3.36 0 2.4-1.16 4.16-1.16 1.72-3.28 2.68-2.08 0.96-4.92 0.96-3.08 0-5.24-0.92-2.12-0.92-3.24-2.6-1.08-1.72-1.08-4.16 0-1.96 0.8-3.4 0.84-1.44 2.2-2.48t2.92-1.76q-1.4-0.8-2.56-1.8-1.12-1.04-1.8-2.36-0.64-1.32-0.64-3.08 0-2.2 1.12-3.68 1.12-1.52 3.04-2.32t4.36-0.8zm25.9 2.96q-2.48 0-4.08 1.64-1.56 1.64-1.56 5 0 2.76 1.32 4.36 1.36 1.56 4.16 1.56 1.92 0 3.32-0.76 1.4-0.8 2.16-2 0.8-1.2 0.8-2.48t-0.4-2.56q-0.36-1.32-1.12-2.4t-1.92-1.72-2.68-0.64zm9.68 9.64q0 2.44-0.36 4.88-0.32 2.4-1.16 4.56-0.84 2.12-2.32 3.8-1.48 1.64-3.76 2.6-2.28 0.92-5.52 0.92-0.8 0-1.88-0.12-1.04-0.08-1.72-0.28v-3q0.72 0.24 1.68 0.4 0.96 0.12 1.84 0.12 2.8 0 4.6-0.92 1.84-0.92 2.92-2.48 1.08-1.6 1.56-3.68 0.48-2.12 0.56-4.44h-0.24q-0.6 0.92-1.52 1.68t-2.24 1.2q-1.28 0.44-3.04 0.44-2.44 0-4.32-1-1.84-1.04-2.88-2.96-1-1.92-1-4.68 0-3 1.12-5.16 1.16-2.16 3.2-3.32t4.8-1.16q2.04 0 3.8 0.8 1.76 0.76 3.08 2.32t2.04 3.92q0.76 2.36 0.76 5.56zm18.22 0.84h7.96v2.84h-7.96v8.24h-2.88v-8.24h-7.96v-2.84h7.96v-8.28h2.88zm34.14 0v2.84h-18.8v-2.84zm31.54 7.92q2.2 0 3.44-1.8 1.28-1.8 1.28-4.36 0-2.64-1.32-4.36-1.28-1.76-3.32-1.76-1.76 0-3.2 1.52-1.44 1.48-2.84 4.6 1.28 3.08 2.68 4.64 1.44 1.52 3.28 1.52zm-15.92-0.16q1.84 0 3.28-1.48 1.48-1.52 2.84-4.64-1.24-3.08-2.68-4.6-1.44-1.56-3.36-1.56-2.08 0-3.36 1.84-1.24 1.84-1.24 4.4 0 2.44 1.16 4.24t3.36 1.8zm16.08 3.48q-2.28 0-4.44-1.44-2.12-1.44-3.92-4.6-1.56 2.84-3.48 4.36-1.88 1.52-4.36 1.52-2.12 0-3.88-1.12-1.72-1.16-2.72-3.24-1-2.12-1-5 0-2.72 0.96-4.88t2.72-3.4q1.76-1.28 4.08-1.28t4.48 1.4q2.16 1.36 3.84 4.52 1.56-2.88 3.44-4.32t4.32-1.44q3.44 0 5.56 2.56t2.12 6.72q0 2.72-0.96 4.92-0.96 2.16-2.72 3.44-1.72 1.28-4.04 1.28z" fill="#fff" style="white-space:pre" aria-label="0123456789+−∞"/><path d="m31.737 375.45q3.84 0 5.8 1.88 1.96 1.84 1.96 6v13.96h-3.48v-13.72q0-2.6-1.16-3.88t-3.64-1.28q-3.56 0-4.92 2t-1.36 5.76v11.12h-3.52v-21.44h2.84l0.52 2.92h0.2q0.72-1.12 1.76-1.84 1.08-0.76 2.36-1.12t2.64-0.36zm20.14 11.08q0 2.52 0.64 4.4 0.68 1.84 2.08 2.84t3.56 1 3.56-1 2.04-2.84q0.68-1.88 0.68-4.4 0-2.56-0.68-4.36t-2.08-2.76q-1.36-1-3.56-1-3.28 0-4.76 2.16t-1.48 5.96zm16.2 0q0 2.68-0.72 4.76-0.68 2.04-2 3.48-1.28 1.44-3.16 2.2-1.84 0.72-4.12 0.72-2.12 0-3.92-0.72-1.8-0.76-3.12-2.2t-2.08-3.48q-0.72-2.08-0.72-4.76 0-3.56 1.2-6 1.2-2.48 3.44-3.76 2.24-1.32 5.32-1.32 2.92 0 5.12 1.32 2.24 1.28 3.48 3.76 1.28 2.44 1.28 6zm18.42-8.12q-2.16 0-3.48 0.84-1.32 0.8-1.92 2.44t-0.64 4.16v0.68q0 2.64 0.56 4.48t1.88 2.8q1.36 0.96 3.68 0.96 1.96 0 3.2-1.08 1.28-1.08 1.88-2.92 0.64-1.88 0.64-4.28 0-3.68-1.44-5.88-1.4-2.2-4.36-2.2zm0.64-2.96q3.96 0 6.36 2.76 2.44 2.76 2.44 8.32 0 3.64-1.12 6.16-1.08 2.48-3.08 3.76-1.96 1.24-4.64 1.24-1.64 0-2.92-0.44t-2.2-1.12q-0.88-0.72-1.52-1.56h-0.24q0.08 0.68 0.16 1.72t0.08 1.8v8.8h-3.52v-31.04h2.88l0.48 2.92h0.16q0.64-0.92 1.52-1.68 0.92-0.76 2.16-1.2 1.28-0.44 3-0.44zm25.9 19.32q2.2 0 3.52-0.8 1.36-0.8 1.96-2.44 0.6-1.68 0.64-4.16v-0.72q0-4.08-1.36-6.16-1.36-2.12-4.84-2.12-2.88 0-4.28 2.28-1.4 2.24-1.4 6.04t1.4 5.96q1.44 2.12 4.36 2.12zm6.08 2.96q0-0.72 0.04-1.68t0.16-1.64h-0.24q-0.92 1.36-2.56 2.32-1.6 0.96-4.16 0.96-3.88 0-6.32-2.76-2.4-2.8-2.4-8.32 0-3.68 1.12-6.16t3.12-3.72q2-1.28 4.6-1.28 2.52 0 4.12 0.96t2.56 2.36h0.16l0.52-2.92h2.8v31.04h-3.52zm23.62-22.28q0.6 0 1.28 0.08 0.72 0.04 1.24 0.16l-0.44 3.24q-0.52-0.12-1.16-0.2-0.6-0.08-1.16-0.08-1.24 0-2.36 0.52t-2 1.48q-0.88 0.92-1.4 2.24-0.48 1.32-0.48 2.96v11.44h-3.52v-21.44h2.88l0.4 3.92h0.16q0.68-1.2 1.64-2.16 0.96-1 2.2-1.56 1.24-0.6 2.72-0.6zm23.78 15.92q0 2.08-1.04 3.48t-2.96 2.12-4.56 0.72q-2.24 0-3.88-0.36-1.6-0.36-2.84-1v-3.2q1.28 0.64 3.08 1.2 1.84 0.52 3.72 0.52 2.68 0 3.88-0.84 1.2-0.88 1.2-2.32 0-0.8-0.44-1.44t-1.6-1.28q-1.12-0.64-3.24-1.44-2.08-0.8-3.56-1.6t-2.28-1.92-0.8-2.88q0-2.72 2.2-4.2 2.24-1.48 5.84-1.48 1.96 0 3.64 0.4 1.72 0.36 3.2 1.04l-1.2 2.8q-1.36-0.56-2.84-0.96t-3.04-0.4q-2.16 0-3.32 0.72-1.12 0.68-1.12 1.88 0 0.88 0.52 1.52 0.52 0.6 1.72 1.2 1.24 0.56 3.28 1.36 2.04 0.76 3.48 1.56t2.2 1.96q0.76 1.12 0.76 2.84zm15.66 3.44q0.8 0 1.64-0.12 0.84-0.16 1.36-0.32v2.68q-0.56 0.28-1.6 0.44-1.04 0.2-2 0.2-1.68 0-3.12-0.56-1.4-0.6-2.28-2.04t-0.88-4.04v-12.48h-3.04v-1.68l3.08-1.4 1.4-4.56h2.08v4.92h6.2v2.72h-6.2v12.4q0 1.96 0.92 2.92 0.96 0.92 2.44 0.92zm28.5-18.96v21.44h-2.88l-0.52-2.84h-0.16q-0.68 1.12-1.76 1.84t-2.36 1.04q-1.28 0.36-2.68 0.36-2.56 0-4.32-0.8-1.72-0.84-2.6-2.56t-0.88-4.44v-14.04h3.56v13.8q0 2.56 1.16 3.84t3.6 1.28q2.4 0 3.76-0.88 1.4-0.92 1.96-2.64 0.6-1.76 0.6-4.24v-11.16zm14.82 21.44-8.12-21.44h3.76l4.56 12.64q0.32 0.88 0.68 1.96t0.64 2.08q0.28 0.96 0.4 1.64h0.16q0.16-0.68 0.44-1.68 0.32-1 0.68-2.08 0.4-1.08 0.68-1.92l4.56-12.64h3.76l-8.16 21.44zm32.74-12.12q-0.24-0.84-0.48-1.64-0.24-0.84-0.44-1.56-0.16-0.76-0.32-1.4t-0.24-1.08h-0.16q-0.08 0.44-0.24 1.08-0.12 0.64-0.32 1.4-0.16 0.76-0.4 1.6-0.2 0.8-0.48 1.64l-3.84 12.04h-4l-5.88-21.44h3.64l2.96 11.44q0.32 1.16 0.6 2.36 0.28 1.16 0.48 2.24 0.24 1.04 0.32 1.8h0.16q0.12-0.48 0.28-1.2t0.32-1.52q0.2-0.8 0.4-1.6 0.24-0.8 0.44-1.44l3.8-12.08h3.84l3.68 12.08q0.28 0.92 0.56 1.96 0.32 1.04 0.56 2.04 0.24 0.96 0.32 1.72h0.16q0.08-0.68 0.28-1.68 0.24-1.04 0.52-2.24 0.32-1.24 0.64-2.44l3-11.44h3.6l-5.96 21.44h-4.12zm25.98 1.16-7.4-10.48h4l5.52 8.08 5.48-8.08h3.96l-7.4 10.48 7.8 10.96h-4l-5.84-8.56-5.92 8.56h-3.96zm16.02-10.48h3.76l4.64 12.2q0.4 1.08 0.72 2.08 0.36 1 0.64 1.96 0.28 0.92 0.44 1.8h0.16q0.24-1 0.76-2.6 0.52-1.64 1.08-3.28l4.36-12.16h3.8l-9.24 24.4q-0.76 2-1.8 3.48-1 1.52-2.48 2.32-1.44 0.84-3.52 0.84-0.96 0-1.68-0.12-0.72-0.08-1.24-0.2v-2.8q0.44 0.08 1.04 0.16 0.64 0.08 1.32 0.08 1.24 0 2.12-0.48 0.92-0.44 1.56-1.32 0.64-0.84 1.08-2l1.12-2.84zm40.9 21.44h-15.68v-2.32l11.52-16.4h-10.84v-2.72h14.72v2.64l-11.36 16.08h11.64z" style="white-space:pre" aria-label="nopqrstuvwxyz"/><path d="m32.137 344.93q-4 0.16-5.56 1.28-1.52 1.12-1.52 3.16 0 1.8 1.08 2.64 1.12 0.84 2.84 0.84 2.72 0 4.52-1.48 1.8-1.52 1.8-4.64v-1.92zm-1.04-11.44q3.92 0 5.8 1.72t1.88 5.48v14.6h-2.56l-0.68-3.04h-0.16q-0.92 1.16-1.92 1.96-0.96 0.76-2.24 1.12-1.24 0.36-3.04 0.36-1.92 0-3.48-0.68-1.52-0.68-2.4-2.08-0.88-1.44-0.88-3.6 0-3.2 2.52-4.92 2.52-1.76 7.76-1.92l3.64-0.12v-1.28q0-2.68-1.16-3.72t-3.28-1.04q-1.68 0-3.2 0.52-1.52 0.48-2.84 1.12l-1.08-2.64q1.4-0.76 3.32-1.28 1.92-0.56 4-0.56zm27.18 2.92q-2.28 0-3.6 0.88-1.32 0.84-1.88 2.64-0.56 1.76-0.56 4.52v0.16q0 3.96 1.28 6.08 1.32 2.08 4.84 2.08 2.88 0 4.28-2.12 1.44-2.12 1.44-6.12 0-4.04-1.44-6.08-1.4-2.04-4.36-2.04zm-6.04-4.12q0 1.36-0.08 2.56-0.04 1.16-0.12 1.84h0.2q0.92-1.36 2.52-2.28t4.12-0.92q4 0 6.4 2.8 2.44 2.76 2.44 8.28 0 3.68-1.12 6.16-1.08 2.48-3.08 3.72t-4.64 1.24q-2.52 0-4.12-0.92t-2.52-2.2h-0.28l-0.72 2.72h-2.52v-30.4h3.52zm32.98 23.4q-2.84 0-5.08-1.16-2.2-1.16-3.48-3.6-1.24-2.44-1.24-6.24 0-3.96 1.32-6.44t3.56-3.64q2.28-1.16 5.16-1.16 1.64 0 3.16 0.36 1.52 0.32 2.48 0.8l-1.08 2.92q-0.96-0.36-2.24-0.68t-2.4-0.32q-2.16 0-3.56 0.92t-2.08 2.72-0.68 4.48q0 2.56 0.68 4.36t2.04 2.72 3.4 0.92q1.76 0 3.08-0.36 1.36-0.36 2.48-0.88v3.12q-1.08 0.56-2.4 0.84-1.28 0.32-3.12 0.32zm22.06-2.92q3.4 0 4.76-1.84 1.4-1.88 1.4-5.64v-0.64q0-4-1.32-6.12-1.32-2.16-4.88-2.16-2.84 0-4.28 2.28-1.4 2.24-1.4 6.04 0 3.84 1.4 5.96 1.44 2.12 4.32 2.12zm-0.56 2.92q-4 0-6.4-2.76-2.4-2.8-2.4-8.32t2.4-8.32q2.44-2.84 6.44-2.84 1.68 0 2.92 0.44 1.24 0.4 2.16 1.12t1.56 1.6h0.24q-0.04-0.52-0.16-1.52-0.08-1.04-0.08-1.64v-8.56h3.52v30.4h-2.84l-0.52-2.88h-0.16q-0.64 0.92-1.56 1.68-0.92 0.72-2.2 1.16-1.24 0.44-2.92 0.44zm28.54-19.36q-2.52 0-4 1.64-1.44 1.6-1.72 4.48h10.92q0-1.84-0.56-3.2t-1.72-2.12q-1.12-0.8-2.92-0.8zm0.04-2.88q2.76 0 4.72 1.2 2 1.2 3.04 3.4 1.08 2.16 1.08 5.08v2.12h-14.68q0.08 3.64 1.84 5.56 1.8 1.88 5 1.88 2.04 0 3.6-0.36 1.6-0.4 3.28-1.12v3.08q-1.64 0.72-3.24 1.04-1.6 0.36-3.8 0.36-3.04 0-5.4-1.24-2.32-1.24-3.64-3.68-1.28-2.48-1.28-6.04 0-3.52 1.16-6.04 1.2-2.52 3.32-3.88 2.16-1.36 5-1.36zm27.46 3.12h-5.4v18.72h-3.52v-18.72h-3.76v-1.64l3.76-1.2v-1.24q0-2.76 0.8-4.48 0.84-1.72 2.4-2.52t3.76-0.8q1.28 0 2.32 0.24 1.08 0.2 1.84 0.48l-0.92 2.76q-0.64-0.2-1.48-0.4t-1.72-0.2q-1.76 0-2.64 1.2-0.84 1.16-0.84 3.68v1.4h5.4zm15.26-0.16q-1.8 0-3.08 0.96-1.24 0.96-1.92 2.8-0.64 1.84-0.64 4.48 0 3.96 1.44 6.08 1.48 2.08 4.28 2.08 1.64 0 2.8-0.4 1.16-0.44 1.92-1.32 0.76-0.92 1.12-2.32t0.36-3.32v-0.84q0-2.92-0.68-4.72-0.64-1.8-2.04-2.64t-3.56-0.84zm-0.48-2.96q2.12 0 3.8 0.8 1.72 0.8 2.92 2.44h0.2l0.48-2.84h2.8v21.8q0 3.04-1.04 5.08-1.04 2.08-3.16 3.12t-5.4 1.04q-2.32 0-4.28-0.36-1.92-0.32-3.44-1v-3.24q1.52 0.8 3.56 1.24t4.36 0.44q2.76 0 4.32-1.64 1.6-1.6 1.6-4.4v-0.84q0-0.48 0.04-1.36 0.04-0.92 0.08-1.28h-0.16q-1.12 1.64-2.8 2.44-1.64 0.8-3.84 0.8-4.16 0-6.52-2.92-2.32-2.92-2.32-8.16 0-5.12 2.32-8.12 2.36-3.04 6.48-3.04zm23.82 0.36q0 0.76-0.08 1.56-0.04 0.8-0.12 1.44h0.24q0.68-1.12 1.72-1.84t2.32-1.08q1.28-0.4 2.64-0.4 2.6 0 4.32 0.84 1.76 0.8 2.64 2.52t0.88 4.48v13.96h-3.48v-13.72q0-2.6-1.16-3.88t-3.64-1.28q-2.4 0-3.76 0.92-1.36 0.88-1.96 2.64-0.56 1.72-0.56 4.24v11.08h-3.52v-30.4h3.52zm26.3-8q0.8 0 1.4 0.56 0.64 0.52 0.64 1.68 0 1.12-0.64 1.68-0.6 0.56-1.4 0.56-0.88 0-1.48-0.56t-0.6-1.68q0-1.16 0.6-1.68 0.6-0.56 1.48-0.56zm1.72 8.04v21.44h-3.52v-21.44zm9.82-5.8q0-1.16 0.6-1.68 0.6-0.56 1.48-0.56 0.8 0 1.4 0.56 0.64 0.52 0.64 1.68 0 1.12-0.64 1.68-0.6 0.56-1.4 0.56-0.88 0-1.48-0.56t-0.6-1.68zm-2.24 36.84q-1 0-1.76-0.16-0.76-0.12-1.32-0.32v-2.84q0.6 0.16 1.24 0.28t1.4 0.12q1.28 0 2.12-0.72 0.84-0.68 0.84-2.64v-24.76h3.52v24.64q0 2-0.64 3.44t-1.96 2.2-3.44 0.76zm19.62-24.12q0 0.64-0.08 1.68-0.04 1.04-0.08 1.8h0.16q0.24-0.32 0.72-0.92t0.96-1.2q0.52-0.64 0.88-1.04l6.84-7.24h4.12l-8.68 9.16 9.28 12.28h-4.24l-7.44-10-2.44 2.12v7.88h-3.48v-30.4h3.48zm27.1 14.92q-3.16 0-4.6-1.68-1.44-1.72-1.44-4.72v-24.4h3.52v24.52q0 1.96 0.84 2.68 0.84 0.68 2.12 0.68 0.8 0 1.4-0.12 0.64-0.12 1.24-0.28v2.84q-0.52 0.2-1.28 0.32-0.76 0.16-1.8 0.16zm34.18-22.24q3.64 0 5.44 1.88 1.8 1.84 1.8 6v13.96h-3.48v-13.8q0-2.52-1.08-3.8-1.04-1.28-3.28-1.28-3.12 0-4.48 1.8-1.32 1.8-1.32 5.24v11.84h-3.48v-13.8q0-1.68-0.48-2.8-0.48-1.16-1.44-1.72t-2.48-0.56q-2.16 0-3.4 0.92-1.24 0.88-1.8 2.6-0.52 1.72-0.52 4.24v11.12h-3.52v-21.44h2.84l0.52 2.92h0.2q0.68-1.12 1.64-1.84 1-0.76 2.2-1.12t2.48-0.36q2.48 0 4.12 0.88 1.68 0.88 2.44 2.72h0.2q1.08-1.84 2.92-2.72 1.88-0.88 3.96-0.88z" style="white-space:pre" aria-label="abcdefghijklm"/><path d="m41.501 281.29h-17.333v-4.5867l4.64-2.1333v-24.64l-4.64-2.1333v-4.5867h17.333v4.5867l-4.64 2.1333v24.64l4.64 2.1333zm28.427 0h-21.92v-38.08h21.92v6.6133h-13.867v8.3733h12.907v6.6133h-12.907v9.8133h13.867zm23.84-29.653q4.6933 0 7.52 2.56 2.8267 2.5067 2.8267 8.1067v18.987h-7.9467v-17.013q0-3.1467-1.12-4.6933-1.12-1.6-3.5733-1.6-3.6267 0-4.96 2.5067-1.3333 2.4533-1.3333 7.0933v13.707h-7.9467v-29.12h6.08l1.0667 3.7333h0.42667q0.96-1.4933 2.3467-2.4 1.3867-0.96 3.0933-1.3867 1.7067-0.48 3.52-0.48zm45.227 0.53333v29.12h-6.08l-1.0667-3.7333h-0.42666q-0.90667 1.4933-2.3467 2.4533-1.3867 0.90667-3.0933 1.3333-1.7067 0.48-3.52 0.48-3.0933 0-5.44-1.12-2.3467-1.12-3.6267-3.4667t-1.28-6.08v-18.987h7.9467v17.013q0 3.0933 1.12 4.6933t3.5733 1.6 3.7867-1.12q1.3867-1.12 1.92-3.2533 0.58666-2.1333 0.58666-5.2267v-13.707zm42.507-0.53333q4.96 0 7.4667 2.56 2.56 2.5067 2.56 8.1067v18.987h-7.9467v-17.013q0-3.1467-1.0667-4.6933-1.0667-1.6-3.3067-1.6-3.1467 0-4.48 2.24t-1.3333 6.4533v14.613h-7.9467v-17.013q0-2.08-0.48-3.4667-0.48-1.3867-1.44-2.08-0.96-0.74666-2.4533-0.74666-2.1867 0-3.4667 1.12t-1.8133 3.2533q-0.53334 2.1333-0.53334 5.2267v13.707h-7.9467v-29.12h6.08l1.0667 3.7333h0.42666q0.90667-1.4933 2.24-2.4 1.3333-0.96 2.9333-1.3867 1.6533-0.48 3.3067-0.48 3.2 0 5.44 1.0667 2.24 1.0133 3.4133 3.2h0.69334q1.3333-2.24 3.68-3.2533 2.4-1.0133 4.9067-1.0133zm30.24 5.6533q-2.2933 0-3.84 1.4933-1.4933 1.4933-1.76 4.64h11.147q0-1.76-0.64-3.1467-0.58666-1.3867-1.8133-2.1867-1.2267-0.79999-3.0933-0.79999zm-0.0533-5.6533q4.0533 0 6.9333 1.5467 2.9333 1.5467 4.5333 4.48t1.6 7.2v3.84h-18.773q0.10667 3.36 1.9733 5.28 1.92 1.92 5.28 1.92 2.8267 0 5.12-0.53334 2.2933-0.58666 4.7467-1.76v6.1333q-2.1333 1.0667-4.5333 1.5467-2.3467 0.53333-5.7067 0.53333-4.3733 0-7.7333-1.6-3.36-1.6533-5.28-4.96-1.92-3.3067-1.92-8.32 0-5.12 1.7067-8.48 1.76-3.4133 4.8533-5.12 3.0933-1.7067 7.2-1.7067zm35.787 0q0.58667 0 1.3867 0.0533t1.28 0.16l-0.58666 7.4667q-0.37333-0.10667-1.12-0.16-0.69333-0.10667-1.2267-0.10667-1.5467 0-2.9867 0.42667-1.44 0.37333-2.6133 1.2267-1.12 0.85333-1.8133 2.2933-0.64 1.3867-0.64 3.4667v14.827h-7.9467v-29.12h6.0267l1.1733 4.9067h0.37333q0.85333-1.4933 2.1333-2.72 1.28-1.2267 2.9333-1.9733 1.7067-0.74666 3.6267-0.74666zm19.947 16.267q-3.84 0.10667-5.3333 1.3867-1.4933 1.28-1.4933 3.36 0 1.8133 1.0667 2.6133 1.0667 0.74666 2.7733 0.74666 2.56 0 4.32-1.4933 1.76-1.5467 1.76-4.32v-2.4zm-1.12-16.32q5.8667 0 8.96 2.56 3.1467 2.5067 3.1467 7.7333v19.413h-5.5467l-1.5467-3.9467h-0.21333q-1.2267 1.5467-2.56 2.56-1.28 1.0133-2.9867 1.44-1.6533 0.48-4.1067 0.48-2.56 0-4.64-0.96-2.0267-1.0133-3.2-3.04-1.1733-2.08-1.1733-5.2267 0-4.64 3.2533-6.8267 3.2533-2.24 9.76-2.4533l5.0667-0.16v-1.28q0-2.2933-1.2267-3.36-1.1733-1.0667-3.3067-1.0667-2.1333 0-4.16 0.63999-2.0267 0.58667-4.0533 1.4933l-2.6133-5.3867q2.3467-1.2267 5.1733-1.92 2.88-0.69333 5.9733-0.69333zm33.92 6.4q-2.08 0-3.3067 0.85333-1.2267 0.85333-1.8133 2.6133-0.53333 1.7067-0.58667 4.32v0.85333q0 4.2133 1.2267 6.5067 1.28 2.24 4.5867 2.24 2.4533 0 3.8933-2.24 1.44-2.2933 1.44-6.56t-1.4933-6.4q-1.44-2.1867-3.9467-2.1867zm-5.7067-7.7867q0 1.6533-0.10666 3.2533-0.10667 1.6-0.21333 2.5067h0.31999q1.1733-1.8133 3.1467-3.04 1.9733-1.28 5.12-1.28 4.9067 0 7.9467 3.84 3.04 3.7867 3.04 11.2 0 4.96-1.44 8.3733-1.3867 3.36-3.8933 5.0667-2.5067 1.7067-5.8667 1.7067-3.2 0-5.0667-1.12-1.8133-1.1733-2.9867-2.6133h-0.53333l-1.3333 3.2h-6.08v-40.533h7.9467zm36.107 31.627q-3.7333 0-6.0267-1.28-2.24-1.3333-3.2533-3.52-1.0133-2.1867-1.0133-4.8533v-31.413h7.9467v30.24q0 2.6133 1.12 3.52 1.12 0.90667 2.72 0.90667 1.0667 0 1.92-0.10667 0.85333-0.16 1.8133-0.37333v6.24q-0.96 0.26667-2.4 0.42667-1.44 0.21333-2.8267 0.21333zm23.147-24.533q-2.2933 0-3.84 1.4933-1.4933 1.4933-1.76 4.64h11.147q0-1.76-0.64-3.1467-0.58667-1.3867-1.8133-2.1867-1.2267-0.79999-3.0933-0.79999zm-0.0533-5.6533q4.0533 0 6.9333 1.5467 2.9333 1.5467 4.5333 4.48t1.6 7.2v3.84h-18.773q0.10666 3.36 1.9733 5.28 1.92 1.92 5.28 1.92 2.8267 0 5.12-0.53334 2.2933-0.58666 4.7467-1.76v6.1333q-2.1333 1.0667-4.5333 1.5467-2.3467 0.53333-5.7067 0.53333-4.3733 0-7.7333-1.6-3.36-1.6533-5.28-4.96-1.92-3.3067-1.92-8.32 0-5.12 1.7067-8.48 1.76-3.4133 4.8533-5.12 3.0933-1.7067 7.2-1.7067z" fill="#843c13" style="white-space:pre" aria-label="IEnumerable"/><path d="m334.47 149.42q-19.467 0.77867-27.059 6.2294-7.3973 5.4507-7.3973 15.379 0 8.76 5.256 12.848 5.4507 4.088 13.821 4.088 13.237 0 21.997-7.2027 8.76-7.3974 8.76-22.581v-9.344zm-5.0614-55.675q19.077 0 28.227 8.3707 9.1494 8.3707 9.1494 26.669v71.053h-12.459l-3.3093-14.795h-0.77867q-4.4773 5.6454-9.344 9.5387-4.672 3.6987-10.901 5.4507-6.0347 1.752-14.795 1.752-9.344 0-16.936-3.3093-7.3973-3.3093-11.68-10.123-4.2827-7.008-4.2827-17.52 0-15.573 12.264-23.944 12.264-8.5654 37.765-9.344l17.715-0.584v-6.2293q0-13.043-5.6454-18.104-5.6453-5.0614-15.963-5.0614-8.176 0-15.573 2.5307-7.3974 2.336-13.821 5.4507l-5.256-12.848q6.8134-3.6987 16.157-6.2293 9.344-2.7253 19.467-2.7253z" fill="#fff" style="white-space:pre" aria-label="a"/><path transform="translate(2,60)" d="m33.124 121.18h10.08l-0.85333-8q-0.21333-2.0267-0.42667-4.48-0.16-2.4533-0.21333-4.32h-0.16q-0.85333 2.0267-1.9733 4.3733-1.12 2.2933-2.3467 4.64zm-13.707 16.107 20.693-38.08h5.0133l4.6933 38.08h-4.6933l-1.44-11.84h-12.853l-6.1867 11.84zm44.853-3.36q1.9733 0 3.84-1.44 1.92-1.44 3.4667-3.8933t2.3467-5.4933q0.42667-1.5467 0.53333-2.8267 0.16-1.3333 0.16-2.4533 0-2.5067-1.3867-4.1067-1.3867-1.6-3.7333-1.6-1.6533 0-3.1467 0.85334-1.44 0.85333-2.6667 2.4-1.2267 1.4933-2.08 3.52-0.85333 2.0267-1.3333 4.4267-0.48 2.3467-0.48 4.8533 0 2.88 1.1733 4.32t3.3067 1.44zm-1.5467 3.8933q-2.2933 0-4.0533-1.0667-1.7067-1.12-2.72-3.3067-0.96-2.1867-0.96-5.3867t0.64-6.1333q0.69333-2.9867 1.92-5.4933t2.9333-4.32q1.76-1.8667 3.8933-2.88 2.1867-1.0667 4.64-1.0667 1.8667 0 3.2533 0.69333 1.44 0.69333 2.4 1.8133 0.96 1.12 1.5467 2.4533h0.26667l1.7067-4.4267h3.5733l-6.08 28.587h-3.7333l0.69333-5.28h-0.21333q-1.2267 1.5467-2.72 2.88-1.4933 1.3333-3.2533 2.1333-1.7067 0.8-3.7333 0.8zm32.8-0.53333 0.53333-2.6133 4.5333-1.0667 6.5067-30.72-4.0533-1.0133 0.53334-2.6667h13.333l-0.53333 2.6667-4.5867 1.0133-6.5067 30.72 4.1067 1.0667-0.53334 2.6133zm27.467 0.53333q-3.4133 0-5.0133-1.4933-1.5467-1.5467-1.5467-4.2667 0-1.28 0.32-2.7733l7.2-32.533h4.6933l-7.2533 32.693q-0.16 0.85333-0.16 1.6 0 1.6533 0.85333 2.2933 0.90667 0.58666 2.2933 0.58666 1.0667 0 1.92-0.16 0.90666-0.16 1.76-0.37333l-0.8 3.7867q-0.79999 0.26667-1.8667 0.42667-1.0133 0.21333-2.4 0.21333zm23.04-24.107q0.37334-1.6533 0.74667-3.36 0.37333-1.76 0.74667-3.2533 0.42666-1.5467 0.74666-2.56-0.8 0.85334-1.6533 1.4933t-1.92 1.3333l-4.6933 2.9333-2.1867-3.52 11.947-7.5733h4.1067l-8.16 38.08h-4.7467zm45.547 19.893q2.1333 0 3.9467-0.74666 1.8133-0.74667 3.3067-2.08 1.5467-1.3333 2.72-3.1467 1.1733-1.8667 1.9733-4.1067 0.8-2.2933 1.2267-4.8 0.42666-2.56 0.42666-5.2267 0-5.0667-2.4-7.84-2.4-2.8267-6.56-2.8267-2.1333 0-4 0.74666-1.8667 0.69334-3.4133 2.0267-1.4933 1.28-2.72 3.1467-1.2267 1.8133-2.08 4.0533-0.8 2.24-1.2267 4.8-0.42667 2.56-0.42667 5.3333 0 3.36 1.12 5.76 1.12 2.3467 3.1467 3.6267 2.08 1.28 4.96 1.28zm-0.16 4.2133q-4.5333 0-7.7333-1.76-3.1467-1.8133-4.8-5.12-1.6-3.36-1.6-7.8933 0-3.3067 0.58666-6.3467 0.58667-3.0933 1.7067-5.8133 1.1733-2.72 2.8267-4.96 1.6533-2.24 3.7867-3.8933 2.1867-1.6533 4.7467-2.5067 2.6133-0.90667 5.6-0.90667 6.5067 0 10.08 4 3.6267 4 3.6267 10.987 0 3.3067-0.53334 6.4-0.53333 3.04-1.6 5.76-1.0667 2.6667-2.6667 4.9067-1.6 2.1867-3.68 3.7867t-4.6933 2.5067q-2.56 0.85333-5.6533 0.85333zm33.6-4q2.1333 0 3.7867-1.3867 1.7067-1.3867 2.9333-3.7333 1.28-2.4 2.1333-5.3867 0.85333-2.9867 1.28-6.1867 0.42666-3.2533 0.42666-6.3467 0-3.9467-1.28-6.0267-1.2267-2.1333-3.7867-2.1333-2.0267 0-3.7333 1.3867-1.7067 1.3333-3.04 3.68-1.28 2.2933-2.1867 5.1733-0.90667 2.88-1.3867 6.0267-0.48 3.0933-0.48 5.9733 0 4.32 1.28 6.6667 1.28 2.2933 4.0533 2.2933zm-0.53333 4q-4.6933 0-7.1467-3.36-2.4-3.36-2.4-9.6 0-3.1467 0.53333-6.72 0.53333-3.5733 1.6533-6.9867 1.1733-3.4667 3.04-6.2933 1.8667-2.8267 4.48-4.5333 2.6667-1.7067 6.1333-1.7067 4.9067 0 7.2533 3.2 2.3467 3.1467 2.3467 9.0667 0 3.84-0.58666 7.68-0.58667 3.84-1.8133 7.3067-1.1733 3.4667-3.04 6.1867-1.8667 2.6667-4.48 4.2133-2.6133 1.5467-5.9733 1.5467zm4.5867-17.333q-0.85333 0.90667-1.8667 0.90667-1.0133 0-1.5467-0.96t-0.32-2.24q0.21333-1.3333 1.0667-2.24 0.85333-0.96 1.8667-0.96 0.90667 0 1.4933 0.90667 0.58667 0.90666 0.37334 2.2933-0.21334 1.3333-1.0667 2.2933z" style="inline-size:241.42;white-space:pre" aria-label="Aa Il1 O0"/><path transform="translate(-1.04 2)" d="m41.23 109.72q-0.16-0.42666-0.53333-1.5467t-0.74667-2.2933q-0.32-1.2267-0.53333-1.8667-0.26667 1.0667-0.58667 2.1867-0.26667 1.0667-0.58667 1.9733-0.26667 0.90666-0.48 1.5467l-4.32 11.52h12.053zm10.293 27.573-4.5867-11.787h-15.093l-4.5333 11.787h-4.8533l14.88-38.24h4.32l14.827 38.24zm21.76-13.813q-5.3333 0.21333-7.4133 1.7067-2.0267 1.4933-2.0267 4.2133 0 2.4 1.44 3.52 1.4933 1.12 3.7867 1.12 3.6267 0 6.0267-1.9733 2.4-2.0267 2.4-6.1867v-2.56zm-1.3867-15.253q5.2267 0 7.7333 2.2933 2.5067 2.2933 2.5067 7.3067v19.467h-3.4133l-0.90667-4.0533h-0.21333q-1.2267 1.5467-2.56 2.6133-1.28 1.0133-2.9867 1.4933-1.6533 0.48-4.0533 0.48-2.56 0-4.64-0.90666-2.0267-0.90667-3.2-2.7733-1.1733-1.92-1.1733-4.8 0-4.2667 3.36-6.56 3.36-2.3467 10.347-2.56l4.8533-0.16v-1.7067q0-3.5733-1.5467-4.96-1.5467-1.3867-4.3733-1.3867-2.24 0-4.2667 0.69333-2.0267 0.64-3.7867 1.4933l-1.44-3.52q1.8667-1.0133 4.4267-1.7067 2.56-0.74667 5.3333-0.74667zm44.32 29.067h-13.76v-2.7733l4.48-1.0133v-30.453l-4.48-1.0667v-2.7733h13.76v2.7733l-4.48 1.0667v30.453l4.48 1.0133zm14.613 0.53333q-4.2133 0-6.1333-2.24-1.92-2.2933-1.92-6.2933v-32.533h4.6933v32.693q0 2.6133 1.12 3.5733 1.12 0.90666 2.8267 0.90666 1.0667 0 1.8667-0.16 0.85334-0.16 1.6533-0.37333v3.7867q-0.69334 0.26667-1.7067 0.42667-1.0133 0.21333-2.4 0.21333zm24.213-0.53333h-4.5867v-26.613q0-1.5467 0-2.6133 0.0533-1.0667 0.10666-1.9733 0.0533-0.96 0.10667-1.9733-0.85333 0.85333-1.5467 1.44-0.69333 0.58666-1.76 1.4933l-4.0533 3.3067-2.4533-3.1467 10.293-8h3.8933zm35.093-27.307q-1.3333 3.4133-1.3333 8.2133t1.3333 8.2667q1.3333 3.4667 4.1067 5.3333 2.8267 1.8667 7.0933 1.8667 4.32 0 7.04-1.8667 2.7733-1.8667 4.1067-5.3333 1.3333-3.4667 1.3333-8.2667 0-7.2-2.9867-11.253-2.9867-4.1067-9.44-4.1067-4.32 0-7.1467 1.8667-2.7733 1.8133-4.1067 5.28zm28.747 8.2133q0 4.4267-1.12 8.0533-1.12 3.5733-3.36 6.1867-2.1867 2.6133-5.4933 4-3.2533 1.3867-7.5733 1.3867-4.48 0-7.7867-1.3867-3.3067-1.44-5.4933-4-2.1867-2.6133-3.2533-6.24-1.0667-3.6267-1.0667-8.0533 0-5.8667 1.92-10.24 1.92-4.3733 5.8133-6.8267 3.9467-2.4533 9.92-2.4533 5.7067 0 9.6 2.4533 3.8933 2.4 5.8667 6.8267 2.0267 4.3733 2.0267 10.293zm10.56 0q0 7.84 1.76 11.733 1.8133 3.8933 6.1333 3.8933 4.2667 0 6.08-3.84 1.8667-3.8933 1.8667-11.787 0-7.7867-1.8667-11.68-1.8133-3.8933-6.08-3.8933-4.32 0-6.1333 3.8933-1.76 3.8933-1.76 11.68zm20.587 0q0 6.1333-1.28 10.56-1.28 4.3733-4.0533 6.72-2.7733 2.3467-7.36 2.3467-6.4533 0-9.5467-5.1733-3.04-5.2267-3.04-14.453 0-6.1867 1.2267-10.56 1.28-4.3733 4.0533-6.6667 2.7733-2.3467 7.3067-2.3467 6.4 0 9.5467 5.1733 3.1467 5.12 3.1467 14.4zm-10.987 2.2933q-0.69333 0.90667-1.7067 0.90667-1.0133 0-1.7067-0.96t-0.69333-2.24q0-1.3333 0.69333-2.24 0.69333-0.96 1.7067-0.96 0.90666 0 1.6533 0.90667 0.74666 0.90666 0.74666 2.2933 0 1.3333-0.69333 2.2933z" style="inline-size:241.42;white-space:pre" aria-label="Aa Il1 O0"/><path d="m21.417 61.812v-38.08h4.8v33.813h16.64v4.2667zm29.707-39.307q1.0667 0 1.8667 0.74667 0.85333 0.69333 0.85333 2.24 0 1.4933-0.85333 2.24-0.8 0.74667-1.8667 0.74667-1.1733 0-1.9733-0.74667-0.8-0.74667-0.8-2.24 0-1.5467 0.8-2.24 0.8-0.74667 1.9733-0.74667zm2.2933 10.72v28.587h-4.6933v-28.587zm27.68 20.693q0 2.7733-1.3867 4.64-1.3867 1.8667-3.9467 2.8267-2.56 0.96-6.08 0.96-2.9867 0-5.1733-0.48-2.1333-0.48-3.7867-1.3333v-4.2667q1.7067 0.85333 4.1067 1.6 2.4533 0.69333 4.96 0.69333 3.5733 0 5.1733-1.12 1.6-1.1733 1.6-3.0933 0-1.0667-0.58667-1.92t-2.1333-1.7067q-1.4933-0.85333-4.32-1.92-2.7733-1.0667-4.7467-2.1333t-3.04-2.56-1.0667-3.84q0-3.6267 2.9333-5.6 2.9867-1.9733 7.7867-1.9733 2.6133 0 4.8533 0.53333 2.2933 0.48 4.2667 1.3867l-1.6 3.7333q-1.8133-0.74667-3.7867-1.28t-4.0533-0.53333q-2.88 0-4.4267 0.96-1.4933 0.90667-1.4933 2.5067 0 1.1733 0.69333 2.0267 0.69333 0.8 2.2933 1.6 1.6533 0.74667 4.3733 1.8133 2.72 1.0133 4.64 2.08t2.9333 2.6133q1.0133 1.4933 1.0133 3.7867zm20.693-21.227q5.12 0 7.7333 2.5067 2.6133 2.4533 2.6133 8v18.613h-4.64v-18.293q0-3.4667-1.5467-5.1733-1.5467-1.7067-4.8533-1.7067-4.7467 0-6.56 2.6667-1.8133 2.6667-1.8133 7.68v14.827h-4.6933v-28.587h3.7867l0.69333 3.8933h0.26667q0.96-1.4933 2.3467-2.4533 1.44-1.0133 3.1467-1.4933 1.7067-0.48 3.52-0.48zm22.453 14.773q0 3.36 0.85333 5.8667 0.90667 2.4533 2.7733 3.7867 1.8667 1.3333 4.7467 1.3333t4.7467-1.3333q1.8667-1.3333 2.72-3.7867 0.90667-2.5067 0.90667-5.8667 0-3.4133-0.90667-5.8133-0.90666-2.4-2.7733-3.68-1.8133-1.3333-4.7467-1.3333-4.3733 0-6.3467 2.88-1.9733 2.88-1.9733 7.9467zm21.6 0q0 3.5733-0.96 6.3467-0.90667 2.72-2.6667 4.64-1.7067 1.92-4.2133 2.9333-2.4533 0.96-5.4933 0.96-2.8267 0-5.2267-0.96-2.4-1.0133-4.16-2.9333t-2.7733-4.64q-0.96-2.7733-0.96-6.3467 0-4.7467 1.6-8 1.6-3.3067 4.5867-5.0133 2.9867-1.76 7.0933-1.76 3.8933 0 6.8267 1.76 2.9867 1.7067 4.64 5.0133 1.7067 3.2533 1.7067 8zm16.96 11.04q1.0667 0 2.1867-0.16 1.12-0.21333 1.8133-0.42667v3.5733q-0.74667 0.37333-2.1333 0.58667-1.3867 0.26667-2.6667 0.26667-2.24 0-4.16-0.74667-1.8667-0.8-3.04-2.72-1.1733-1.92-1.1733-5.3867v-16.64h-4.0533v-2.24l4.1067-1.8667 1.8667-6.08h2.7733v6.56h8.2667v3.6267h-8.2667v16.533q0 2.6133 1.2267 3.8933 1.28 1.2267 3.2533 1.2267zm12.107-36q1.0667 0 1.8667 0.74667 0.85333 0.69333 0.85333 2.24 0 1.4933-0.85333 2.24-0.8 0.74667-1.8667 0.74667-1.1733 0-1.9733-0.74667-0.8-0.74667-0.8-2.24 0-1.5467 0.8-2.24 0.8-0.74667 1.9733-0.74667zm2.2933 10.72v28.587h-4.6933v-28.587z" aria-label="Lisnoti"/></g></svg>
