<svg xmlns="http://www.w3.org/2000/svg" viewBox="0 -1000 22242 1300" width="355.9" height="20.8">
<title>⌂☸ ♩♪♫♬♭♮♯ ♀♂⚢⚣⚤⚥⚦⚧⚨⚩⚭⚮⚯⚲ ⌘ ␣ ☉ ♿ 円圓</title>
<g transform="scale(1,-1)" fill="#e6edf3">
<path d="M91 0V425L398 713L705 425V0ZM162 71H634V402L398 623L162 402Z"/>
<path d="M1008 88Q1008 109 1023.0 124.0Q1038 139 1060 139Q1068 139 1075 137L1109 171Q1081 205 1064 246Q1047 287 1043 332H995Q991 325 986 320Q970 304 949 304Q927 304 912.0 319.5Q897 335 897.0 356.0Q897 377 912.0 392.5Q927 408 949 408Q970 408 986 392Q991 387 995 380H1043Q1047 426 1064 466Q1081 507 1109 541L1075 575Q1068 573 1060 573Q1038 573 1023.0 588.0Q1008 603 1008 624Q1008 646 1023.0 661.0Q1038 676 1060.0 676.0Q1082 676 1096.5 661.0Q1111 646 1111 624Q1111 617 1109 611L1144 576Q1176 603 1216 620Q1258 638 1305 642V690Q1298 693 1292 700Q1277 715 1277.0 736.0Q1277 757 1292.0 772.5Q1307 788 1329 788Q1350 788 1365.5 772.5Q1381 757 1381.0 736.0Q1381 715 1366 700Q1360 694 1353 690V642Q1400 638 1442 620Q1482 603 1514 576L1549 611Q1547 617 1547 624Q1547 646 1561.5 661.0Q1576 676 1598.0 676.0Q1620 676 1635.0 661.0Q1650 646 1650 624Q1650 603 1635.0 588.0Q1620 573 1598 573Q1590 573 1583 575L1549 541Q1577 507 1594 466Q1611 426 1615 380H1663Q1666 387 1672 392Q1687 408 1709 408Q1730 408 1745.5 392.5Q1761 377 1761.0 356.0Q1761 335 1745.5 319.5Q1730 304 1709 304Q1687 304 1672 320Q1666 325 1663 332H1615Q1611 287 1594 246Q1577 205 1549 171L1583 137Q1590 139 1598 139Q1620 139 1635.0 124.0Q1650 109 1650 88Q1650 66 1635.0 51.0Q1620 36 1598.0 36.0Q1576 36 1561.5 51.0Q1547 66 1547 88Q1547 95 1549 101L1514 136Q1482 109 1442 92Q1400 74 1353 70V22Q1360 18 1366 12Q1381 -3 1381.0 -24.0Q1381 -45 1365.5 -60.5Q1350 -76 1329 -76Q1307 -76 1292.0 -60.5Q1277 -45 1277.0 -24.0Q1277 -3 1292 12Q1298 19 1305 22V70Q1258 74 1216 92Q1176 109 1144 136L1109 101Q1111 95 1111 88Q1111 66 1096.5 51.0Q1082 36 1060.0 36.0Q1038 36 1023.0 51.0Q1008 66 1008 88ZM1476 538Q1463 549 1448 558Q1405 584 1353 589V458Q1368 455 1382 446Q1382 446 1383 445ZM1353 254V123Q1405 128 1448 154Q1463 163 1476 174L1383 267Q1382 266 1382 266Q1368 257 1353 254ZM1305 589Q1254 584 1211 558Q1196 549 1182 538L1274 446Q1275 446 1276 446Q1290 455 1305 458ZM1305 123V254Q1290 257 1276 266Q1275 266 1274 266L1182 174Q1196 163 1211 154Q1254 128 1305 123ZM1560 380Q1555 430 1530 473Q1521 489 1511 503L1418 410Q1419 409 1420 408Q1428 395 1431 380ZM1147 503Q1137 489 1128 473Q1103 430 1098 380H1227Q1230 395 1238 408Q1239 410 1239 411ZM1510 210Q1521 224 1530 240Q1555 283 1560 332H1431Q1428 317 1420 304Q1419 303 1418 302ZM1098 332Q1103 283 1128 240Q1137 224 1148 210L1240 302Q1239 303 1238 304Q1230 317 1227 332ZM1329 298Q1353 298 1370.0 315.0Q1387 332 1387.0 356.0Q1387 380 1370.0 397.0Q1353 414 1329 414Q1304 414 1287.5 397.0Q1271 380 1271.0 356.0Q1271 332 1287.5 315.0Q1304 298 1329 298Z"/>
<path d="M2282 5Q2251 5 2235.0 20.5Q2219 36 2219 61Q2219 88 2234.5 111.5Q2250 135 2275.0 149.0Q2300 163 2327 163Q2339 163 2351.5 160.5Q2364 158 2376 153V639H2413V150Q2413 107 2394.5 74.5Q2376 42 2346.5 23.5Q2317 5 2282 5Z"/>
<path d="M2592 5Q2561 5 2545.0 20.5Q2529 36 2529 61Q2529 88 2544.5 111.5Q2560 135 2585.0 149.0Q2610 163 2637 163Q2649 163 2661.5 160.5Q2674 158 2686 153V639H2723V582Q2730 571 2738 562Q2754 542 2770 523Q2793 498 2814.0 469.0Q2835 440 2848.5 402.0Q2862 364 2862 312Q2862 265 2849.5 224.0Q2837 183 2811 146H2786Q2803 185 2811.0 221.5Q2819 258 2819 289Q2819 336 2802.5 368.5Q2786 401 2761 420Q2742 434 2723 440V150Q2723 107 2704.5 74.5Q2686 42 2656.5 23.5Q2627 5 2592 5Z"/>
<path d="M3043 -35Q3012 -35 2996.0 -19.5Q2980 -4 2980 21Q2980 48 2995.5 71.5Q3011 95 3036.0 109.0Q3061 123 3088 123Q3100 123 3112.5 120.5Q3125 118 3137 113V563L3511 659V150Q3511 107 3492.5 74.5Q3474 42 3444.5 23.5Q3415 5 3380 5Q3349 5 3333.0 20.5Q3317 36 3317 61Q3317 88 3332.5 111.5Q3348 135 3373.0 149.0Q3398 163 3425 163Q3437 163 3449.5 160.5Q3462 158 3474 153V582L3174 499V110Q3174 67 3155.5 34.5Q3137 2 3107.5 -16.5Q3078 -35 3043 -35Z"/>
<path d="M3690 -35Q3659 -35 3643.0 -19.5Q3627 -4 3627 21Q3627 48 3642.5 71.5Q3658 95 3683.0 109.0Q3708 123 3735 123Q3747 123 3759.5 120.5Q3772 118 3784 113V563L4158 659V150Q4158 107 4139.5 74.5Q4121 42 4091.5 23.5Q4062 5 4027 5Q3996 5 3980.0 20.5Q3964 36 3964 61Q3964 88 3979.5 111.5Q3995 135 4020.0 149.0Q4045 163 4072 163Q4084 163 4096.5 160.5Q4109 158 4121 153V430L3821 348V110Q3821 67 3802.5 34.5Q3784 2 3754.5 -16.5Q3725 -35 3690 -35ZM4121 498V582L3821 499V417Z"/>
<path d="M4267 -25V584H4304V179Q4331 218 4361 241Q4395 267 4432 267Q4468 267 4490.0 242.0Q4512 217 4512 170Q4512 114 4479.0 69.0Q4446 24 4388 -2Q4362 -14 4336.0 -19.5Q4310 -25 4285 -25ZM4304 141V4Q4319 4 4338 11Q4363 20 4388.5 39.0Q4414 58 4431 83Q4443 100 4449.0 120.5Q4455 141 4455 165Q4455 192 4446.5 207.0Q4438 222 4416 222Q4385 222 4352 195Q4324 172 4304 141Z"/>
<path d="M4822 -213V-59L4614 -156V404H4661V264L4869 361V-213ZM4661 -57 4822 19V261L4661 186Z"/>
<path d="M5069 -233V-77L4971 -124V-46L5069 0V245L4971 198V276L5069 323V482H5116V342L5277 420V590H5324V439L5422 485V408L5324 361V116L5422 160V82L5324 39V-135H5277V20L5116 -58V-233ZM5116 19 5277 97V342L5116 264Z"/>
<path d="M5965 0V108H5847V155H5965V243Q5914 250 5873.0 279.0Q5832 308 5808.0 353.0Q5784 398 5784 450Q5784 506 5812.5 552.5Q5841 599 5888.5 627.0Q5936 655 5992 655Q6049 655 6096.5 627.0Q6144 599 6172.0 552.5Q6200 506 6200 450Q6200 399 6176.0 354.0Q6152 309 6111.5 279.5Q6071 250 6019 243V155H6130V108H6019V0ZM6150 450Q6150 492 6128.5 527.0Q6107 562 6071.0 583.5Q6035 605 5992.0 605.0Q5949 605 5913.0 583.5Q5877 562 5855.5 527.0Q5834 492 5834 450Q5834 407 5855.5 371.0Q5877 335 5913.0 313.5Q5949 292 5992.0 292.0Q6035 292 6071.0 313.5Q6107 335 6128.5 371.0Q6150 407 6150 450Z"/>
<path d="M6510 0Q6454 0 6406.5 28.0Q6359 56 6330.5 103.5Q6302 151 6302 208Q6302 264 6330.5 310.5Q6359 357 6406.5 385.0Q6454 413 6510 413Q6544 413 6575.0 402.5Q6606 392 6634 372L6727 476L6648 515L6816 534L6817 365L6768 440L6673 334Q6696 306 6707.0 274.5Q6718 243 6718 208Q6718 151 6690.0 103.5Q6662 56 6614.5 28.0Q6567 0 6510 0ZM6668 208Q6668 250 6646.5 285.5Q6625 321 6589.0 342.0Q6553 363 6510.0 363.0Q6467 363 6431.0 342.0Q6395 321 6373.5 285.5Q6352 250 6352 208Q6352 165 6373.5 129.0Q6395 93 6431.0 71.5Q6467 50 6510.0 50.0Q6553 50 6589.0 71.5Q6625 93 6646.5 129.0Q6668 165 6668 208Z"/>
<path d="M7100 0V108H7032V155H7100V243Q7049 250 7008.0 279.0Q6967 308 6943.0 353.0Q6919 398 6919 450Q6919 506 6947.5 552.5Q6976 599 7023.5 627.0Q7071 655 7127 655Q7160 655 7190.0 645.5Q7220 636 7247 616Q7275 636 7305.0 645.5Q7335 655 7368 655Q7425 655 7472.5 627.0Q7520 599 7548.0 552.5Q7576 506 7576 450Q7576 398 7552.0 353.0Q7528 308 7487.0 279.0Q7446 250 7395 243V155H7456V108H7395V0H7341V108H7273V155H7341V243Q7315 246 7291.0 255.0Q7267 264 7247 280Q7227 264 7203.5 255.0Q7180 246 7154 243V155H7215V108H7154V0ZM7127 292Q7150 292 7170.0 298.0Q7190 304 7209 315Q7184 344 7172.0 378.0Q7160 412 7160.0 450.0Q7160 488 7172.0 520.5Q7184 553 7209 581Q7190 593 7169.5 599.0Q7149 605 7127 605Q7084 605 7048.0 583.5Q7012 562 6990.5 527.0Q6969 492 6969 450Q6969 407 6990.5 371.0Q7012 335 7048.0 313.5Q7084 292 7127 292ZM7368 292Q7410 292 7446.0 313.5Q7482 335 7504.0 371.0Q7526 407 7526.0 450.0Q7526 493 7504.0 528.0Q7482 563 7446.0 584.0Q7410 605 7368 605Q7354 605 7340.0 602.5Q7326 600 7312.5 594.5Q7299 589 7286 581Q7311 552 7323.0 519.5Q7335 487 7335 450Q7335 412 7323.0 378.0Q7311 344 7286 315Q7304 304 7324.5 298.0Q7345 292 7368 292ZM7247 349Q7266 372 7275.5 397.5Q7285 423 7285 450Q7285 476 7275.5 501.0Q7266 526 7247 549Q7228 527 7219.0 502.0Q7210 477 7210 450Q7210 422 7219.0 397.0Q7228 372 7247 349Z"/>
<path d="M8079 0Q8030 0 7987.0 21.5Q7944 43 7914.5 80.0Q7885 117 7875 164Q7820 167 7775.0 195.5Q7730 224 7704.0 270.5Q7678 317 7678 372Q7678 428 7706.5 474.5Q7735 521 7782.5 549.0Q7830 577 7886 577Q7920 577 7951.0 566.5Q7982 556 8010 536L8103 640L8024 679L8192 698L8193 529L8144 604L8049 498Q8080 456 8090 413Q8121 411 8149.5 400.5Q8178 390 8203 372L8296 476L8217 515L8385 534L8386 365L8337 440L8242 334Q8265 306 8276.0 274.5Q8287 243 8287 208Q8287 151 8258.5 103.5Q8230 56 8183.0 28.0Q8136 0 8079 0ZM7871 214Q7871 217 7871.5 219.5Q7872 222 7872 225Q7876 271 7898.5 309.5Q7921 348 7957.5 374.5Q7994 401 8039 409Q8031 444 8008.0 470.5Q7985 497 7953.0 512.0Q7921 527 7886 527Q7843 527 7807.0 506.0Q7771 485 7749.5 449.5Q7728 414 7728 372Q7728 332 7747.0 297.5Q7766 263 7798.5 240.5Q7831 218 7871 214ZM8079 50Q8122 50 8158.0 71.5Q8194 93 8215.5 129.0Q8237 165 8237 208Q8237 247 8218.0 281.0Q8199 315 8166.5 337.0Q8134 359 8094 362V358Q8091 311 8068.5 271.0Q8046 231 8009.5 204.0Q7973 177 7926 167Q7936 133 7958.0 106.5Q7980 80 8011.5 65.0Q8043 50 8079 50ZM7921 218Q7953 226 7979.0 245.5Q8005 265 8022.0 293.0Q8039 321 8043 354V359Q8011 352 7985.0 332.5Q7959 313 7942.0 285.0Q7925 257 7921 224Z"/>
<path d="M8669 -151V-43H8551V4H8669V92Q8618 99 8577.0 128.0Q8536 157 8512.0 201.5Q8488 246 8488 299Q8488 354 8516.5 402.0Q8545 450 8592 476Q8599 526 8628.0 566.5Q8657 607 8701.5 631.0Q8746 655 8799 655Q8834 655 8864.5 644.5Q8895 634 8923 614L9016 718L8937 757L9105 776L9106 607L9057 682L8962 576Q8985 549 8996.0 517.5Q9007 486 9007 450Q9007 394 8978.5 345.5Q8950 297 8901 269Q8895 223 8870.0 185.0Q8845 147 8807.0 122.5Q8769 98 8723 92V4H8834V-43H8723V-151ZM8901 330Q8927 352 8942.0 382.5Q8957 413 8957 450Q8957 493 8935.0 528.0Q8913 563 8877.0 584.0Q8841 605 8799 605Q8750 605 8708.0 575.5Q8666 546 8649 499Q8660 501 8672.0 502.5Q8684 504 8696 504Q8748 504 8792.0 481.0Q8836 458 8865.0 419.0Q8894 380 8901 330ZM8696 141Q8730 141 8760.0 154.5Q8790 168 8812.0 192.0Q8834 216 8845 247Q8836 245 8824.5 243.5Q8813 242 8799 242Q8748 242 8703.5 264.5Q8659 287 8630.0 326.5Q8601 366 8593 416Q8568 394 8553.0 364.0Q8538 334 8538 299Q8538 256 8559.5 220.0Q8581 184 8617.0 162.5Q8653 141 8696 141ZM8799 292Q8815 292 8829.0 294.5Q8843 297 8854 302Q8853 344 8831.0 378.5Q8809 413 8773.5 433.5Q8738 454 8696 454Q8682 454 8668.5 451.5Q8655 449 8641 444Q8643 402 8664.5 367.5Q8686 333 8721.5 312.5Q8757 292 8799 292Z"/>
<path d="M9389 0V108H9271V155H9389V243Q9338 250 9297.0 279.0Q9256 308 9232.0 353.0Q9208 398 9208 450Q9208 506 9236.5 552.5Q9265 599 9312.5 627.0Q9360 655 9416 655Q9451 655 9482.0 644.5Q9513 634 9540 614L9633 718L9554 757L9722 776L9723 607L9674 682L9579 576Q9602 549 9613.0 517.5Q9624 486 9624 450Q9624 399 9600.0 354.0Q9576 309 9535.5 279.5Q9495 250 9443 243V155H9554V108H9443V0ZM9574 450Q9574 492 9552.5 527.0Q9531 562 9495.0 583.5Q9459 605 9416.0 605.0Q9373 605 9337.0 583.5Q9301 562 9279.5 527.0Q9258 492 9258 450Q9258 407 9279.5 371.0Q9301 335 9337.0 313.5Q9373 292 9416.0 292.0Q9459 292 9495.0 313.5Q9531 335 9552.5 371.0Q9574 407 9574 450Z"/>
<path d="M10033 0Q9977 0 9929.5 28.0Q9882 56 9853.5 103.5Q9825 151 9825 208Q9825 264 9853.5 310.5Q9882 357 9929.5 385.0Q9977 413 10033 413Q10067 413 10098.0 402.5Q10129 392 10157 372L10186 404L10119 464L10146 495L10213 435L10250 476L10171 515L10339 534L10340 365L10291 440L10254 399L10322 339L10295 307L10226 368L10196 334Q10219 306 10230.0 274.5Q10241 243 10241 208Q10241 151 10213.0 103.5Q10185 56 10137.5 28.0Q10090 0 10033 0ZM10191 208Q10191 250 10169.5 285.5Q10148 321 10112.0 342.0Q10076 363 10033.0 363.0Q9990 363 9954.0 342.0Q9918 321 9896.5 285.5Q9875 250 9875 208Q9875 165 9896.5 129.0Q9918 93 9954.0 71.5Q9990 50 10033.0 50.0Q10076 50 10112.0 71.5Q10148 93 10169.5 129.0Q10191 165 10191 208Z"/>
<path d="M10722 0V108H10604V155H10722V243Q10671 250 10630.0 279.0Q10589 308 10565.0 353.0Q10541 398 10541 450Q10541 486 10552.0 517.5Q10563 549 10585 576L10556 610L10487 549L10460 581L10528 641L10491 682L10442 607L10443 776L10611 757L10532 718L10569 677L10636 737L10663 706L10596 646L10624 614Q10653 634 10684.0 644.5Q10715 655 10749 655Q10784 655 10815.0 644.5Q10846 634 10873 614L10966 718L10887 757L11055 776L11056 607L11007 682L10912 576Q10935 548 10946.0 516.5Q10957 485 10957 450Q10957 398 10933.0 353.0Q10909 308 10868.0 279.0Q10827 250 10776 243V155H10887V108H10776V0ZM10749 292Q10791 292 10827.0 313.5Q10863 335 10885.0 371.0Q10907 407 10907.0 450.0Q10907 493 10885.0 528.0Q10863 563 10827.0 584.0Q10791 605 10749 605Q10706 605 10670.0 583.5Q10634 562 10612.5 527.0Q10591 492 10591 450Q10591 407 10612.5 371.0Q10634 335 10670.0 313.5Q10706 292 10749 292Z"/>
<path d="M11366 0Q11310 0 11262.5 28.0Q11215 56 11186.5 103.5Q11158 151 11158 208Q11158 261 11182.0 305.0Q11206 349 11247.0 378.0Q11288 407 11339 414V457H11249V499H11339V554L11255 531L11368 657L11481 531L11393 554V499H11484V457H11393V414Q11444 408 11485.0 378.5Q11526 349 11550.0 305.0Q11574 261 11574 208Q11574 151 11546.0 103.5Q11518 56 11470.5 28.0Q11423 0 11366 0ZM11524 208Q11524 252 11502.0 287.5Q11480 323 11444.5 344.5Q11409 366 11366.0 366.0Q11323 366 11287.0 344.0Q11251 322 11229.5 286.5Q11208 251 11208.0 208.0Q11208 165 11229.5 129.0Q11251 93 11287.0 71.5Q11323 50 11366.0 50.0Q11409 50 11445.0 71.5Q11481 93 11502.5 129.0Q11524 165 11524 208Z"/>
<path d="M11884 0Q11828 0 11780.5 28.0Q11733 56 11704.5 103.5Q11676 151 11676.0 208.0Q11676 265 11704.0 312.5Q11732 360 11779.5 388.0Q11827 416 11884 416Q11937 416 11981.0 392.0Q12025 368 12054.5 327.5Q12084 287 12090 235H12133V325H12175V235H12230L12207 319L12333 206L12207 93L12230 181H12175V90H12133V181H12090Q12084 130 12055.0 89.0Q12026 48 11981.5 24.0Q11937 0 11884 0ZM11726 208Q11726 166 11747.5 130.0Q11769 94 11805.0 72.0Q11841 50 11884.0 50.0Q11927 50 11963.0 72.0Q11999 94 12020.5 130.0Q12042 166 12042.0 208.0Q12042 250 12020.5 286.0Q11999 322 11963.0 344.0Q11927 366 11884.0 366.0Q11841 366 11805.0 344.0Q11769 322 11747.5 286.5Q11726 251 11726 208Z"/>
<path d="M12648 140Q12590 140 12541.5 168.5Q12493 197 12464.0 245.5Q12435 294 12435 353Q12435 413 12464.0 461.0Q12493 509 12541.5 537.0Q12590 565 12648 565Q12705 565 12752 537Q12799 565 12858.0 565.0Q12917 565 12965.0 536.5Q13013 508 13041.5 460.0Q13070 412 13070.0 353.0Q13070 294 13041.5 245.5Q13013 197 12965.0 168.5Q12917 140 12858 140Q12802 140 12752 167Q12703 140 12648 140ZM12858 203Q12900 203 12933.5 223.5Q12967 244 12987.0 278.0Q13007 312 13007 353Q13007 395 12987.0 428.5Q12967 462 12933.5 482.0Q12900 502 12858 502Q12845 502 12832.0 500.0Q12819 498 12807 493Q12833 464 12846.5 429.0Q12860 394 12860 353Q12860 313 12846.5 277.5Q12833 242 12807 211Q12819 207 12832.0 205.0Q12845 203 12858 203ZM12648 203Q12662 203 12674.5 205.0Q12687 207 12698 211Q12672 241 12658.5 277.0Q12645 313 12645 353Q12645 394 12658.5 429.0Q12672 464 12698 493Q12686 498 12673.5 500.0Q12661 502 12648 502Q12607 502 12573.0 482.0Q12539 462 12518.5 428.5Q12498 395 12498.0 353.0Q12498 311 12518.5 277.0Q12539 243 12573.0 223.0Q12607 203 12648 203ZM12752 246Q12775 268 12786.0 295.0Q12797 322 12797 353Q12797 385 12786.0 411.0Q12775 437 12752 459Q12730 437 12719.0 411.0Q12708 385 12708 353Q12708 322 12719.0 295.0Q12730 268 12752 246Z"/>
<path d="M13385 140Q13327 140 13278.5 168.5Q13230 197 13201.0 245.5Q13172 294 13172 353Q13172 413 13201.0 461.0Q13230 509 13278.5 537.0Q13327 565 13385 565Q13438 565 13483.0 541.0Q13528 517 13558.0 475.5Q13588 434 13594 381H13601V565H13661V381H13668Q13675 434 13704.5 475.5Q13734 517 13779.5 541.0Q13825 565 13879 565Q13938 565 13986.0 536.5Q14034 508 14062.5 460.0Q14091 412 14091.0 353.0Q14091 294 14062.5 245.5Q14034 197 13986.0 168.5Q13938 140 13879 140Q13825 140 13779.5 164.5Q13734 189 13704.5 231.0Q13675 273 13668 325H13661V140H13601V325H13594Q13588 273 13558.5 231.0Q13529 189 13484.0 164.5Q13439 140 13385 140ZM13879 203Q13921 203 13954.5 223.0Q13988 243 14008.0 277.5Q14028 312 14028 353Q14028 395 14008.0 428.5Q13988 462 13954.0 482.0Q13920 502 13879.0 502.0Q13838 502 13803.5 482.0Q13769 462 13749.0 428.5Q13729 395 13729 353Q13729 312 13749.0 277.5Q13769 243 13803.5 223.0Q13838 203 13879 203ZM13385 203Q13427 203 13460.5 223.5Q13494 244 13514.0 278.0Q13534 312 13534 353Q13534 395 13514.0 428.5Q13494 462 13460.5 482.0Q13427 502 13385 502Q13344 502 13310.0 482.0Q13276 462 13255.5 428.5Q13235 395 13235.0 353.0Q13235 311 13255.5 277.0Q13276 243 13310.0 223.0Q13344 203 13385 203Z"/>
<path d="M14406 140Q14348 140 14299.5 168.5Q14251 197 14222.0 245.5Q14193 294 14193 353Q14193 413 14222.0 461.0Q14251 509 14299.5 537.0Q14348 565 14406 565Q14459 565 14504.0 541.0Q14549 517 14579.0 475.5Q14609 434 14615 381H14789Q14796 434 14825.5 475.5Q14855 517 14900.5 541.0Q14946 565 15000 565Q15059 565 15107.0 536.5Q15155 508 15183.5 460.0Q15212 412 15212.0 353.0Q15212 294 15183.5 245.5Q15155 197 15107.0 168.5Q15059 140 15000 140Q14946 140 14900.5 164.5Q14855 189 14825.5 231.0Q14796 273 14789 325H14615Q14609 273 14579.5 231.0Q14550 189 14505.0 164.5Q14460 140 14406 140ZM15000 203Q15042 203 15075.5 223.5Q15109 244 15129.0 278.0Q15149 312 15149 353Q15149 395 15129.0 428.5Q15109 462 15075.0 482.0Q15041 502 15000.0 502.0Q14959 502 14924.5 482.0Q14890 462 14870.0 428.5Q14850 395 14850 353Q14850 312 14870.0 277.5Q14890 243 14924.5 223.0Q14959 203 15000 203ZM14406 203Q14448 203 14481.5 223.5Q14515 244 14535.0 278.0Q14555 312 14555 353Q14555 395 14535.0 428.5Q14515 462 14481.5 482.0Q14448 502 14406 502Q14365 502 14331.0 482.0Q14297 462 14276.5 428.5Q14256 395 14256.0 353.0Q14256 311 14276.5 277.0Q14297 243 14331.0 223.0Q14365 203 14406 203Z"/>
<path d="M15495 0V243Q15444 250 15403.0 279.0Q15362 308 15338.0 353.0Q15314 398 15314 450Q15314 506 15342.5 552.5Q15371 599 15418.5 627.0Q15466 655 15522 655Q15579 655 15626.5 627.0Q15674 599 15702.0 552.5Q15730 506 15730 450Q15730 399 15706.0 354.0Q15682 309 15641.5 279.5Q15601 250 15549 243V0ZM15680 450Q15680 492 15658.5 527.0Q15637 562 15601.0 583.5Q15565 605 15522.0 605.0Q15479 605 15443.0 583.5Q15407 562 15385.5 527.0Q15364 492 15364 450Q15364 407 15385.5 371.0Q15407 335 15443.0 313.5Q15479 292 15522.0 292.0Q15565 292 15601.0 313.5Q15637 335 15658.5 371.0Q15680 407 15680 450Z"/>
<path d="M16245 0Q16175 0 16133.5 41.0Q16092 82 16092 151Q16092 224 16135.5 264.5Q16179 305 16264 305H16323V415H16264Q16179 415 16135.5 455.5Q16092 496 16092 569Q16092 638 16133.5 679.0Q16175 720 16245 720Q16301 720 16333.5 699.0Q16366 678 16379.5 643.0Q16393 608 16393 566V483H16503V566Q16503 608 16516.5 643.0Q16530 678 16562.5 699.0Q16595 720 16651 720Q16721 720 16762.5 679.0Q16804 638 16804 569Q16804 496 16761.0 455.5Q16718 415 16632 415H16573V305H16632Q16718 305 16761.0 264.5Q16804 224 16804 151Q16804 82 16762.5 41.0Q16721 0 16651 0Q16595 0 16562.5 21.0Q16530 42 16516.5 77.0Q16503 112 16503 154V237H16393V154Q16393 112 16379.5 77.0Q16366 42 16333.5 21.0Q16301 0 16245 0ZM16245 69Q16284 69 16303.5 91.5Q16323 114 16323 152V237H16264Q16211 237 16187.0 215.5Q16163 194 16163 151Q16163 107 16186.5 88.0Q16210 69 16245 69ZM16573 152Q16573 114 16592.5 91.5Q16612 69 16651 69Q16686 69 16709.5 88.0Q16733 107 16733 151Q16733 194 16709.0 215.5Q16685 237 16632 237H16573ZM16264 483H16323V568Q16323 606 16303.5 628.5Q16284 651 16245 651Q16210 651 16186.5 632.0Q16163 613 16163 569Q16163 526 16187.0 504.5Q16211 483 16264 483ZM16573 568V483H16632Q16685 483 16709.0 504.5Q16733 526 16733 569Q16733 613 16709.5 632.0Q16686 651 16651 651Q16612 651 16592.5 628.5Q16573 606 16573 568ZM16393 305H16503V415H16393Z"/>
<path d="M17166 -209V0H17238V-138H17687V0H17759V-209Z"/>
<path d="M18505 -31Q18426 -31 18356.0 -1.0Q18286 29 18233.5 81.5Q18181 134 18151.0 204.0Q18121 274 18121 353Q18121 433 18151.0 502.5Q18181 572 18233.5 624.5Q18286 677 18356.0 707.0Q18426 737 18505 737Q18585 737 18654.5 707.0Q18724 677 18776.5 624.5Q18829 572 18859.0 502.5Q18889 433 18889 353Q18889 274 18859.0 204.0Q18829 134 18776.5 81.5Q18724 29 18654.5 -1.0Q18585 -31 18505 -31ZM18375.0 44.0Q18436 18 18505.0 18.0Q18574 18 18635.0 44.0Q18696 70 18742.0 116.0Q18788 162 18814.0 223.0Q18840 284 18840.0 353.0Q18840 422 18814.0 483.0Q18788 544 18742.0 590.0Q18696 636 18635.0 662.0Q18574 688 18505.0 688.0Q18436 688 18375.0 662.0Q18314 636 18268.0 590.0Q18222 544 18196.0 483.0Q18170 422 18170.0 353.0Q18170 284 18196.0 223.0Q18222 162 18268.0 116.0Q18314 70 18375.0 44.0ZM18428 353Q18428 385 18450.5 407.5Q18473 430 18505.0 430.0Q18537 430 18559.5 407.5Q18582 385 18582 353Q18582 322 18559.5 299.0Q18537 276 18505.0 276.0Q18473 276 18450.5 299.0Q18428 322 18428 353Z"/>
<path d="M19751 65 19663 298H19412L19368 650Q19368 656 19365.5 661.5Q19363 667 19363 673Q19363 678 19362.0 684.0Q19361 690 19361 697Q19361 729 19385.0 752.5Q19409 776 19441 776Q19474 776 19497.5 753.0Q19521 730 19521 697Q19521 667 19499.5 644.0Q19478 621 19448 619L19463 495H19609L19622 426H19471L19480 368H19715L19795 155L19867 179L19891 110ZM19494 -20Q19427 -20 19371.5 12.5Q19316 45 19283.5 100.0Q19251 155 19251 222Q19251 284 19280.5 337.5Q19310 391 19361 426L19374 332Q19352 309 19341.5 281.5Q19331 254 19331 222Q19331 178 19353.0 140.5Q19375 103 19412.0 81.0Q19449 59 19494 59Q19530 59 19564.0 75.5Q19598 92 19624.0 120.0Q19650 148 19661 182L19697 91Q19663 39 19609.0 9.5Q19555 -20 19494 -20Z"/>
<path d="M20292 772H21118V20Q21118 -16 21108.0 -35.5Q21098 -55 21072 -66Q21047 -75 21003.5 -77.0Q20960 -79 20892 -79Q20891 -69 20886.0 -55.0Q20881 -41 20875.5 -27.5Q20870 -14 20864 -4Q20898 -5 20930 -5H21017Q21031 -4 21036.5 1.5Q21042 7 21042 20V329H20368V-81H20292ZM21042 698H20737V403H21042ZM20368 403H20662V698H20368Z"/>
<path d="M21284 794H22120V-83H22046V-36H21356V-83H21284ZM22046 32V725H21356V32ZM21460 489H21941V181H21793Q21845 162 21900 138Q21955 113 21991 91L21929 61Q21898 82 21848.0 107.0Q21798 132 21746 151L21789 181H21599L21653 163Q21615 135 21560.0 107.5Q21505 80 21457 62Q21452 68 21444.0 76.0Q21436 84 21427.0 92.5Q21418 101 21411 106Q21461 120 21512 140Q21562 159 21595 181H21460ZM21503 669H21901V527H21503ZM21524 272V223H21874V272ZM21524 360V313H21874V360ZM21524 447V401H21874V447ZM21566 627V570H21835V627Z"/>
</g></svg>
