<svg xmlns="http://www.w3.org/2000/svg" viewBox="0 -1000 22997 1300" width="368.0" height="20.8">
<title>x⁰¹²³⁴⁵⁶⁷⁸⁹⁽⁾⁺⁻ᵃᵇᶜᵈᵉᶠᵍʰⁱʲᵏˡᵐⁿᵒᵖ𐞥ʳˢᵗᵘᵛʷˣʸᶻᴬᴮꟲᴰᴱꟳᴳᴴᴵᴶᴷᴸᴹᴺᴼᴾꟴᴿᵀᵁⱽᵂx</title>
<g transform="scale(1,-1)" fill="#1f2328">
<path d="M252 274 67 536H167L305 334L442 536H541L356 274L551 0H451L305 214L157 0H58Z"/>
<path d="M892 632Q892 563 877 514Q863 464 831 438Q800 411 748 411Q675 411 640 470Q605 529 605 632Q605 701 619 750Q634 799 665 826Q697 852 748 852Q821 852 856 793Q892 736 892 632ZM663 632Q663 545 682 502Q702 461 748 461Q794 461 813 502Q834 545 834 632Q834 718 813 760Q794 802 748 802Q702 802 682 761Q663 718 663 632ZM719 632Q719 647 727 659Q735 670 748 670Q759 670 768 659Q777 648 777 632Q777 616 769 605Q760 594 747.5 594.0Q735 594 727 605Q719 617 719 632Z"/>
<path d="M1123 845V417H1067V715Q1067 733 1067.0 744.5Q1067 756 1068 767L1069 782Q1062 775 1056 770L1037 754L990 715L959 754L1076 845Z"/>
<path d="M1552 470V417H1267V464L1378 577Q1410 609 1432 634Q1454 658 1465 682Q1476 705 1476 733Q1476 767 1456 784Q1436 802 1404 802Q1374 802 1351 791Q1328 781 1304 762L1302 760L1271 799L1272 801Q1289 815 1309 827Q1329 838 1353.0 844.5Q1377 851 1404 851Q1444 851 1473 837Q1502 823 1518.5 797.5Q1535 772 1535 736Q1535 702 1521 673Q1507 643 1482 615Q1458 587 1425 555L1339 470Z"/>
<path d="M1887 744Q1887 715 1876 693Q1865 672 1844 659Q1827 647 1805 642Q1851 635 1874 610Q1900 583 1900 540Q1900 502 1882 473Q1865 444 1828 427Q1792 411 1735 411Q1701 411 1673 416Q1644 421 1618 434L1616 435V490L1620 488Q1646 475 1676.5 467.5Q1707 460 1735 460Q1791 460 1816 482Q1840 503 1840 541Q1840 567 1827 582Q1813 598 1787 606Q1761 613 1724 613H1681V663H1725Q1759 663 1782 673Q1805 682 1816.5 699.5Q1828 717 1828 740Q1828 770 1808 786Q1788 802 1754 802Q1732 802 1713.5 798.0Q1695 794 1680 786Q1664 778 1649 767L1646 766L1617 805L1619 807Q1642 825 1676 838Q1710 851 1753 851Q1821 851 1854 821Q1887 791 1887 744Z"/>
<path d="M2293 565V513H2231V417H2176V513H1973V561L2173 848H2231V565ZM2176 696Q2176 711 2176.0 724.0Q2176 737 2177 748Q2177 759 2178 770Q2178 776 2178 781Q2174 773 2169 764Q2162 751 2155 742L2031 565H2176Z"/>
<path d="M2477 682Q2521 682 2553 667Q2586 652 2604.0 623.5Q2622 595 2622 555Q2622 510 2603 478Q2583 445 2547 428Q2511 411 2461 411Q2428 411 2399 417Q2370 423 2350 435H2349V491L2353 488Q2374 475 2404 468Q2434 461 2462 461Q2492 461 2515 470Q2538 480 2551 500Q2563 519 2563 549Q2563 590 2539 611Q2514 633 2460 633Q2443 633 2422 630Q2401 627 2388 624H2387L2359 642L2375 845H2592V793H2424L2415 676Q2424 677 2439 679Q2456 682 2477 682Z"/>
<path d="M2695 600Q2695 637 2700 673Q2705 709 2718 741Q2730 773 2753 798Q2775 823 2809 837Q2843 851 2891 851Q2904 851 2919 850Q2935 849 2944 846L2946 845V795L2943 796Q2932 800 2919 802Q2906 803 2893 803Q2852 803 2826 790Q2799 777 2784 754Q2768 730 2761 700Q2755 671 2753 638Q2761 652 2774 662Q2788 674 2808 680Q2828 687 2853 687Q2891 687 2919 672Q2947 656 2963 627Q2979 597 2979 556Q2979 511 2962 479Q2945 446 2914 429Q2884 411 2842 411Q2811 411 2784 423Q2758 434 2737 458Q2717 481 2706 517Q2695 553 2695 600ZM2841 460Q2877 460 2900 483Q2922 507 2922 556Q2922 595 2902 618Q2883 641 2843 641Q2816 641 2795.5 630.0Q2775 619 2764 601Q2753 584 2753 566Q2753 547 2758 528Q2764 510 2775 494Q2786 478 2803 469Q2819 460 2841 460Z"/>
<path d="M3136 417H3073L3246 793H3019V845H3309V802Z"/>
<path d="M3496 851Q3534 851 3563 840Q3592 828 3609 805Q3625 781 3625 747Q3625 721 3614 702Q3603 682 3584 667Q3567 654 3548 644Q3571 632 3591 618Q3613 602 3626 580Q3639 559 3639 529Q3639 493 3621 466Q3604 440 3572 426Q3540 411 3498 411Q3452 411 3419 425Q3387 439 3370.0 465.0Q3353 491 3353 527Q3353 557 3366 579Q3378 601 3399 617Q3417 631 3438 641Q3420 652 3404 666Q3387 681 3377 701Q3367 721 3367 748Q3367 781 3384 804Q3401 827 3430 839Q3459 851 3496 851ZM3410 527Q3410 497 3431 478Q3452 458 3497 458Q3539 458 3561 478Q3583 497 3583 529Q3583 549 3572 564Q3562 579 3542 591Q3523 603 3496 613L3487 617Q3462 606 3445 593Q3427 580 3418 564Q3410 548 3410 527ZM3495 804Q3464 804 3443 789Q3423 774 3423 746Q3423 724 3433 710Q3443 696 3460 686Q3478 676 3498 667Q3518 675 3534 686Q3550 696 3559 711Q3569 725 3569 746Q3569 774 3549 789Q3529 804 3495 804Z"/>
<path d="M3969 662Q3969 626 3964 590Q3959 553 3946 521Q3933 489 3911 464Q3889 439 3855 425Q3820 411 3772 411Q3760 411 3744 413Q3728 414 3718 417L3716 418V468L3719 467Q3730 463 3744 461Q3758 459 3771 459Q3811 459 3838 472Q3864 486 3880 508Q3896 531 3903 562Q3909 591 3911 624Q3902 611 3889 600Q3875 589 3855 582Q3836 575 3809 575Q3772 575 3744 591Q3716 606 3700 635Q3685 664 3685 706Q3685 751 3702 784Q3719 816 3750 834Q3781 851 3823 851Q3854 851 3880 840Q3907 828 3927 804Q3947 781 3958 745Q3969 710 3969 662ZM3823 802Q3787 802 3764 779Q3742 755 3742 706Q3742 667 3761 644Q3780 621 3820 621Q3848 621 3868.5 632.5Q3889 644 3900 661Q3911 678 3911 696Q3911 715 3905 734Q3900 753 3889 768Q3878 784 3861 793Q3845 802 3823 802Z"/>
<path d="M4030 582Q4030 631 4039 677Q4049 724 4068.5 766.5Q4088 809 4118 844L4119 845H4174L4171 841Q4130 786 4109.0 719.5Q4088 653 4088 583Q4088 537 4097.5 492.5Q4107 448 4125.0 406.5Q4143 365 4171 327L4174 323H4119L4118 324Q4088 360 4068.5 401.0Q4049 442 4039 488Q4030 534 4030 582Z"/>
<path d="M4380 582Q4380 534 4370 488Q4361 442 4342 401Q4322 359 4292 324L4291 323H4236L4239 327Q4266 365 4284.5 406.5Q4303 448 4312.5 492.5Q4322 537 4322 583Q4322 629 4312.5 674.5Q4303 720 4285 762Q4266 805 4239 841L4236 845H4291L4292 844Q4322 809 4342 766Q4361 724 4370 677Q4380 631 4380 582Z"/>
<path d="M4610 605V483H4562V605H4444V652H4562V775H4610V652H4728V605Z"/>
<path d="M4795 605V652H5079V605Z"/>
<path d="M5270 745Q5329 745 5357 719Q5386 693 5386 636V417H5343L5334 461Q5321 445 5307 434Q5292 422 5272 417Q5253 411 5226 411Q5197 411 5174 421Q5151 432 5137 453Q5124 475 5124 508Q5124 557 5162 583Q5200 609 5279 612L5330 614V630Q5330 669 5314 683Q5297 698 5267 698Q5242 698 5220 691Q5198 683 5178 674L5176 673L5158 717L5160 718Q5181 729 5210 737Q5239 745 5270 745ZM5329 572 5285 571Q5227 568 5205 552Q5183 536 5183 507Q5183 482 5198 470Q5214 458 5238 458Q5278 458 5304 480Q5329 501 5329 546Z"/>
<path d="M5539 760Q5539 740 5538 723Q5538 709 5537 700Q5550 718 5573 731Q5597 745 5635 745Q5695 745 5732 703Q5769 661 5769 578Q5769 523 5752 486Q5735 449 5705 430Q5675 411 5635 411Q5597 411 5573 425Q5549 439 5535 457H5534L5524 417H5482V873H5539ZM5626 697Q5593 697 5574 684Q5555 672 5547 647Q5539 621 5539 580V578Q5539 520 5558 489Q5577 460 5627 460Q5669 460 5689 490Q5709 521 5709 579Q5709 638 5689 668Q5669 697 5626 697Z"/>
<path d="M5988 411Q5945 411 5912 429Q5878 446 5859 483Q5840 520 5840 577Q5840 636 5860 673Q5880 711 5914 728Q5948 746 5991 746Q6016 746 6039.0 741.0Q6062 736 6076 728L6078 727L6060 679L6058 680Q6044 686 6025 690Q6006 695 5990 695Q5959 695 5939 682Q5919 669 5909 643Q5899 616 5899 577Q5899 540 5909 514Q5919 488 5938.5 474.5Q5958 461 5987 461Q6013 461 6032 467Q6052 472 6069 479L6072 481V429H6071Q6055 420 6035.0 415.5Q6015 411 5988 411Z"/>
<path d="M6261 411Q6201 411 6164 453Q6128 495 6128.0 578.0Q6128 661 6164 703Q6201 746 6262 746Q6287 746 6305.5 739.5Q6324 733 6338 722Q6351 712 6361 700Q6360 707 6359 719Q6357 734 6357 743V873H6415V417H6368L6360 458Q6351 446 6338 436Q6325 424 6305.5 417.5Q6286 411 6261 411ZM6269 460Q6318 460 6338 486Q6358 513 6358 568V577Q6358 636 6339 667Q6320 697 6269 697Q6228 697 6208 665Q6187 632 6187 577Q6187 521 6208 490Q6228 460 6269 460Z"/>
<path d="M6637 746Q6679 746 6709.0 727.5Q6739 709 6755 676Q6771 644 6771 600V566H6553Q6555 515 6580 488Q6606 461 6652 461Q6682 461 6705 466Q6728 472 6753 482L6756 484V433L6755 432Q6730 421 6706.0 416.0Q6682 411 6650 411Q6604 411 6569 430Q6533 448 6514 486Q6494 523 6494 576Q6494 629 6512 667Q6530 705 6562.0 725.5Q6594 746 6637 746ZM6636 698Q6600 698 6579 675Q6559 652 6555 612H6711Q6711 638 6703 656Q6695 676 6678.5 687.0Q6662 698 6636 698Z"/>
<path d="M7010 740V694H6930V417H6873V694H6817V723L6873 741V757Q6873 799 6885 825Q6898 851 6922 863Q6946 876 6979 876Q6998 876 7014 872Q7030 869 7041 865L7044 864L7028 818L7026 819Q7017 822 7004 825Q6992 828 6979 828Q6955 828 6943 811Q6930 795 6930 758V740Z"/>
<path d="M7183 746Q7215 746 7241 734Q7266 722 7283 698L7290 740H7337V414Q7337 369 7321 338Q7305 306 7273 290Q7241 275 7192 275Q7157 275 7128 280Q7099 285 7076 295L7075 296V350L7079 348Q7101 336 7131 330Q7161 323 7195 323Q7235 323 7257.5 346.5Q7280 370 7280 410V423Q7280 430 7281 443Q7281 451 7281 456Q7265 434 7242 423Q7217 411 7184 411Q7121 411 7085 455Q7050 499 7050 578Q7050 655 7085 700Q7121 746 7183 746ZM7190 697Q7164 697 7146 683Q7128 669 7119 643Q7109 616 7109 577Q7109 519 7130 489Q7151 459 7191 459Q7215 459 7232 465Q7248 471 7259 484Q7270 497 7275 517Q7281 537 7281 565V578Q7281 621 7271 647Q7261 673 7242 685Q7221 697 7190 697Z"/>
<path d="M7491 738Q7491 727 7490 715Q7490 705 7489 698Q7499 713 7513 723Q7529 734 7548.5 739.5Q7568 745 7588 745Q7627 745 7654 733Q7680 720 7694 694Q7707 668 7707 626V417H7650V623Q7650 660 7634 679Q7617 697 7582 697Q7547 697 7527 684Q7508 671 7500 646Q7491 621 7491 584V417H7434V873H7491Z"/>
<path d="M7802 740H7859V417H7802ZM7831 859Q7844 859 7854 850Q7864 842 7864 823Q7864 805 7854 796Q7844 787 7831 787Q7817 787 7807 796Q7798 806 7798 823Q7798 842 7807 850Q7817 859 7831 859Z"/>
<path d="M7926 275Q7911 275 7899.5 277.0Q7888 279 7880 282L7878 283V330L7881 329Q7890 327 7899 325Q7909 323 7920 323Q7938 323 7949 333Q7961 343 7961 370V740H8018V372Q8018 342 8008 320Q7999 298 7978 286Q7958 275 7926 275ZM7957 823Q7957 842 7966 850Q7976 859 7990 859Q8003 859 8013 850Q8023 842 8023 823Q8023 805 8013 796Q8003 787 7990 787Q7976 787 7966 796Q7957 806 7957 823Z"/>
<path d="M8177 635Q8177 625 8176 610L8174 588Q8178 592 8183 598L8197 617Q8205 626 8210 632L8312 740H8380L8249 601L8388 417H8319L8210 564L8177 535V417H8120V873H8177Z"/>
<path d="M8529 411Q8481 411 8459 437Q8437 463 8437 509V873H8494V507Q8494 479 8506 469Q8518 460 8536 460Q8547 460 8556 461Q8565 463 8574 465L8577 466V419L8576 418Q8568 415 8556.5 413.0Q8545 411 8529 411Z"/>
<path d="M8992 746Q9047 746 9074.5 717.5Q9102 689 9102 626V417H9045V624Q9045 660 9030 679Q9015 697 8983 697Q8938 697 8919 671Q8900 645 8900 595V417H8843V624Q8843 648 8836 665Q8829 681 8816 689Q8802 697 8780 697Q8749 697 8731.5 684.0Q8714 671 8706 646Q8698 621 8698 584V417H8641V740H8688L8695 697Q8705 713 8719 724Q8734 735 8752 740Q8770 746 8790 746Q8827 746 8852 732Q8877 719 8889 693Q8905 720 8932 733Q8960 746 8992 746Z"/>
<path d="M9358 746Q9416 746 9446 718Q9476 689 9476 626V417H9419V623Q9419 660 9403 679Q9386 697 9351 697Q9299 697 9280 668Q9260 639 9260 584V417H9203V740H9250L9257 697Q9268 713 9283 724Q9299 735 9318 740Q9338 746 9358 746Z"/>
<path d="M9852 579Q9852 539 9842 508Q9831 477 9812 455Q9792 433 9764 422Q9736 411 9701 411Q9669 411 9642 422Q9615 433 9595 455Q9575 477 9564 508Q9553 539 9553 579Q9553 632 9571 669Q9589 707 9623 726Q9657 746 9703 746Q9747 746 9781 726Q9814 707 9833 669Q9852 632 9852 579ZM9612 579Q9612 542 9622 515Q9631 488 9651.0 474.0Q9671 460 9702.5 460.0Q9734 460 9754.0 474.0Q9774 488 9783 515Q9793 542 9793 579Q9793 616 9783 643Q9773 669 9753.5 683.0Q9734 697 9702 697Q9655 697 9634 666Q9612 635 9612 579Z"/>
<path d="M10085 746Q10144 746 10181 704Q10218 662 10218 579Q10218 525 10201 487Q10184 449 10154.0 430.0Q10124 411 10084 411Q10059 411 10039.5 417.5Q10020 424 10007 435Q9994 445 9985 456Q9986 447 9987 435Q9988 419 9988 408V275H9931V740H9978L9985 698Q9994 710 10007 721Q10020 732 10039.5 739.0Q10059 746 10085 746ZM10075 697Q10044 697 10025 685Q10006 673 9997 650Q9989 626 9988 589V579Q9988 540 9996 513Q10004 487 10023.5 473.5Q10043 460 10076 460Q10104 460 10122 475Q10140 490 10149 517Q10158 544 10158 580Q10158 633 10138 665Q10117 697 10075 697Z"/>
<path d="M10508 413Q10508 424 10509 438Q10509 449 10511 458Q10497 439 10474 426Q10449 411 10411 411Q10352 411 10315 453Q10279 495 10279 578Q10279 633 10296 670Q10313 708 10343.0 727.0Q10373 746 10413 746Q10451 746 10475 731Q10498 718 10512 698L10519 740H10566V275H10508ZM10421 460Q10453 460 10472 471Q10491 482 10500 506Q10508 530 10509 567V577Q10509 637 10489 667Q10470 697 10420 697Q10378 697 10358 665Q10338 632 10338 577Q10338 521 10359 490Q10379 460 10421 460Z"/>
<path d="M10814 746Q10823 746 10833 745Q10844 744 10851 742H10854L10847 688L10844 689Q10836 691 10827.0 692.0Q10818 693 10810 693Q10792 693 10776 686Q10760 678 10747.5 664.5Q10735 651 10727.5 632.0Q10720 613 10720 589V417H10663V740H10710L10716 684Q10726 700 10739 713Q10753 728 10772 737Q10791 746 10814 746Z"/>
<path d="M11144 507Q11144 476 11128 454Q11112 433 11083 422Q11054 411 11014 411Q10981 411 10957 416Q10932 422 10914 432H10912V485L10916 484Q10935 474 10961 466Q10988 458 11016 458Q11054 458 11072 471Q11088 483 11088 503Q11088 514 11082 522Q11076 531 11060 541Q11043 550 11012 562Q10981 574 10959 586Q10936 598 10924 615Q10912 632 10912 659Q10912 701 10946 723Q10979 746 11033 746Q11063 746 11088.5 740.0Q11114 734 11136 724L11138 723L11118 677L11116 678Q11096 686 11074 692Q11053 698 11030 698Q10999 698 10982 688Q10967 678 10967 662Q10967 650 10974 641Q10981 633 10999 624Q11017 616 11047 604Q11077 593 11099 581Q11121 569 11132 551Q11144 534 11144 507Z"/>
<path d="M11357 459Q11369 459 11381 461Q11394 463 11401 465L11405 466V422L11403 421Q11394 417 11379 414Q11363 411 11349 411Q11323 411 11302 420Q11280 429 11266 451Q11253 473 11253 512V694H11208V724L11254 745L11275 813H11310V740H11402V694H11310V513Q11310 485 11323.5 472.0Q11337 459 11357 459Z"/>
<path d="M11681 740H11739V417H11691L11684 458Q11674 442 11659 432Q11642 421 11623 416Q11603 411 11582 411Q11544 411 11518 423Q11491 436 11478 462Q11464 488 11464 529V740H11522V533Q11522 496 11539 478Q11555 460 11590 460Q11625 460 11645 472Q11664 485 11673 510Q11681 536 11681 572Z"/>
<path d="M11990 417H11927L11804 740H11866L11934 551Q11938 538 11943.5 522.0Q11949 506 11953 491Q11956 481 11958 472Q11960 481 11963 491Q11968 506 11974 522Q11979 538 11983 551L12052 740H12113Z"/>
<path d="M12435 598 12428 623Q12424 635 12422 646L12417 667Q12415 672 12414 676Q12414 672 12412 667Q12410 657 12407.5 646.0Q12405 635 12401.5 622.5Q12398 610 12394 598L12337 418H12274L12185 740H12244L12289 569Q12294 552 12298.0 534.5Q12302 517 12305 501Q12307 490 12309 481Q12310 486 12311 492L12316 514Q12319 526 12322.0 538.0Q12325 550 12328 560L12385 740H12446L12501 560Q12505 546 12509.5 530.5Q12514 515 12518 501Q12520 492 12521 484Q12522 491 12524 500Q12527 515 12531.5 533.0Q12536 551 12541 569L12586 740H12645L12555 418H12490Z"/>
<path d="M12854 622 12934 740H12999L12887 582L13005 417H12939L12854 542L12768 417H12703L12819 582L12708 740H12774Z"/>
<path d="M13011 736 13010 740H13071L13140 557Q13146 541 13151.5 526.5Q13157 512 13161 498Q13164 487 13166 477Q13170 490 13176 510Q13184 534 13192 558L13257 740H13319L13181 375Q13169 345 13154 322Q13139 300 13117 287Q13094 275 13063 275Q13048 275 13038 276Q13027 278 13019 280H13017V327L13020 326Q13026 325 13036 324Q13045 323 13054 323Q13072 323 13085.0 329.5Q13098 336 13107 348Q13116 360 13123 377L13139 418Z"/>
<path d="M13606 463V417H13369V455L13537 694H13379V740H13602V697L13436 463Z"/>
<path d="M14062 417H14001L13950 548H13786L13736 417H13676L13844 847H13895ZM13886 725Q13884 730 13880.0 742.5Q13876 755 13872 768Q13870 775 13869 780Q13867 772 13865 765Q13861 753 13858 742Q13855 732 13853 725L13806 601H13932L13886 725Z"/>
<path d="M14258 845Q14339 845 14380 822Q14422 797 14422 738Q14422 712 14412 693Q14403 673 14384 660Q14368 648 14345 643Q14368 638 14388 628Q14410 617 14423.0 595.5Q14436 574 14436 540Q14436 501 14417.5 473.0Q14399 445 14366 431Q14332 417 14286 417H14135V845ZM14193 616V467H14276Q14331 467 14352.5 488.5Q14374 510 14374 544Q14374 566 14364 582Q14355 598 14333 607Q14311 616 14272 616ZM14269 665Q14323 665 14342 682Q14361 699 14361 732Q14361 765 14338 780Q14314 795 14261 795H14193V665Z"/>
<path d="M14706 799Q14673 799 14646 788Q14619 777 14601 755Q14582 733 14572 702Q14562 671 14562 631Q14562 580 14578 542Q14594 504 14625.5 483.5Q14657 463 14705 463Q14733 463 14758 468Q14782 473 14806 480L14809 481V429L14808 428Q14784 419 14758 415Q14733 411 14698 411Q14632 411 14588 438Q14544 465 14522 515Q14501 565 14501 632Q14501 680 14514 720Q14528 761 14554 790Q14580 819 14618 835Q14657 851 14706 851Q14739 851 14770 845Q14800 838 14824 826L14827 825L14803 775L14801 776Q14781 785 14758 792Q14734 799 14706 799Z"/>
<path d="M15252 635Q15252 564 15225 515Q15199 466 15149 442Q15099 417 15028 417H14908V845H15041Q15106 845 15153 821Q15200 797 15226 751Q15252 704 15252 635ZM15191 634Q15191 689 15172 725Q15154 760 15119 777Q15084 795 15033 795H14966V468H15021Q15106 468 15148.5 509.5Q15191 551 15191 634Z"/>
<path d="M15593 469V417H15351V845H15593V793H15409V666H15582V615H15409V469Z"/>
<path d="M15741 597V417H15683V845H15925V793H15741V649H15913V597Z"/>
<path d="M16178 593V646H16329V434L16327 433Q16293 422 16258.0 416.5Q16223 411 16178 411Q16111 411 16066 438Q16020 465 15996 514Q15973 564 15973 631Q15973 698 15999 747Q16025 797 16075 824Q16124 851 16194 851Q16230 851 16262.0 844.5Q16294 838 16322 826L16324 825L16302 774L16299 775Q16277 785 16249 792Q16221 799 16191 799Q16142 799 16106 779Q16071 759 16052 721Q16033 683 16033 631Q16033 581 16050 543Q16066 505 16100 484Q16134 463 16190 463Q16218 463 16237 465Q16256 468 16271 472V593Z"/>
<path d="M16765 845V417H16706V614H16494V417H16436V845H16494V666H16706V845Z"/>
<path d="M17009 452V417H16851V452L16901 464V798L16851 810V845H17009V810L16959 798V464Z"/>
<path d="M17084 304Q17069 304 17058.0 306.5Q17047 309 17039 312L17037 313V363L17040 362Q17050 360 17060 358Q17071 356 17082 356Q17097 356 17110 362Q17122 368 17130 382Q17138 396 17138 422V845H17196V426Q17196 385 17183 358Q17169 331 17143 317Q17117 304 17084 304Z"/>
<path d="M17623 421 17626 417H17557L17408 618L17367 583V417H17309V845H17367V641Q17383 659 17399 676L17436 716L17551 845H17620L17450 658Z"/>
<path d="M17931 417H17688V845H17746V470H17931Z"/>
<path d="M18236 417H18188L18052 780Q18053 772 18053 761Q18054 742 18054.5 720.5Q18055 699 18055 676V417H18001V845H18084L18214 500L18346 845H18429V417H18371V680Q18371 701 18371.5 721.5Q18372 742 18373 760Q18374 771 18374 781Z"/>
<path d="M18888 845V417H18821L18597 765Q18598 754 18599 739L18600 699Q18601 678 18601 656V417H18547V845H18613L18836 498Q18836 507 18835 521L18833 562Q18833 585 18833 604V845Z"/>
<path d="M19381 632Q19381 582 19369 542Q19356 501 19331 472Q19306 442 19269 427Q19232 411 19184 411Q19133 411 19096 427Q19059 443 19034 472Q19010 501 18998 542Q18986 583 18986 632Q18986 698 19007 747Q19029 797 19073 824Q19117 852 19184 852Q19249 852 19292.5 824.5Q19336 797 19359 748Q19381 698 19381 632ZM19062 541Q19076 503 19106.5 483.0Q19137 463 19184 463Q19231 463 19261.0 483.0Q19291 503 19305 541Q19320 579 19320 632Q19320 711 19287 756Q19255 800 19184 800Q19137 800 19107 780Q19076 760 19062 722Q19047 685 19047.0 632.0Q19047 579 19062 541Z"/>
<path d="M19594 845Q19677 845 19716 812Q19755 779 19755 718Q19755 692 19746 667Q19737 643 19717.0 623.5Q19697 604 19664 593Q19631 582 19583 582H19537V417H19479V845ZM19589 795H19537V633H19578Q19617 633 19644 641Q19670 649 19682 668Q19695 686 19695 716Q19695 756 19670 775Q19644 795 19589 795Z"/>
<path d="M20213 632Q20213 580 20199 537Q20185 495 20158 465Q20131 437 20092 423L20195 316H20111L20029 412Q20026 412 20023 411Q20019 411 20016 411Q19965 411 19928 427Q19891 443 19866 472Q19842 501 19830 542Q19818 583 19818 632Q19818 698 19839 747Q19861 797 19905 824Q19949 852 20016 852Q20081 852 20124.5 824.5Q20168 797 20191 748Q20213 698 20213 632ZM19894 541Q19908 503 19938.5 483.0Q19969 463 20016 463Q20063 463 20093.0 483.0Q20123 503 20137 541Q20152 579 20152 632Q20152 711 20119 756Q20087 800 20016 800Q19969 800 19939 780Q19908 760 19894 722Q19879 685 19879.0 632.0Q19879 579 19894 541Z"/>
<path d="M20430 845Q20483 845 20518 832Q20553 818 20570 791Q20587 764 20587 722Q20587 688 20574 665Q20561 642 20542 628Q20523 616 20503 608L20620 417H20552L20450 592H20369V417H20311V845ZM20427 794H20369V642H20430Q20481 642 20504 662Q20527 682 20527 720Q20527 747 20516 763Q20506 779 20484 786Q20462 794 20427 794Z"/>
<path d="M20830 793V417H20771V793H20639V845H20962V793Z"/>
<path d="M21360 569Q21360 524 21342 489Q21324 453 21287 432Q21250 411 21193 411Q21113 411 21071 455Q21029 499 21029 570V845H21087V568Q21087 518 21114.0 490.5Q21141 463 21196 463Q21233 463 21257 476Q21280 490 21291 513Q21302 538 21302 569V845H21360Z"/>
<path d="M21738 845H21800L21647 417H21590L21437 845H21499L21595 572Q21601 555 21606.0 539.0Q21611 523 21615 508Q21617 500 21619 491Q21621 500 21623 509Q21627 523 21632 540Q21637 556 21643 573Z"/>
<path d="M22355 845H22416L22302 417H22244L22161 696Q22158 709 22154.0 722.0Q22150 735 22147 747L22143 766Q22141 758 22138 747L22132 722Q22129 708 22125 694L22044 417H21986L21873 845H21934L22000 585Q22004 571 22007.0 558.0Q22010 545 22012 532Q22015 519 22017 507L22018 501Q22018 504 22019 508Q22021 521 22024.0 534.5Q22027 548 22030.5 561.5Q22034 575 22038 588L22113 845H22172L22250 586Q22254 573 22258.0 559.0Q22262 545 22264.5 531.5Q22267 518 22270 506L22271 501Q22272 508 22273 515Q22276 532 22280.0 549.5Q22284 567 22289 586Z"/>
<path d="M22640 274 22455 536H22555L22693 334L22830 536H22929L22744 274L22939 0H22839L22693 214L22545 0H22446Z"/>
</g></svg>
